<?xml version="1.0" standalone="no"?>
<!DOCTYPE svg PUBLIC "-//W3C//DTD SVG 20010904//EN"
 "http://www.w3.org/TR/2001/REC-SVG-20010904/DTD/svg10.dtd">
<svg version="1.0" xmlns="http://www.w3.org/2000/svg"
 width="745.000000pt" height="688.000000pt" viewBox="0 0 745.000000 688.000000"
 preserveAspectRatio="xMidYMid meet">

<g transform="translate(0.000000,688.000000) scale(0.100000,-0.100000)"
fill="#000000" stroke="none">
<path d="M2442 6519 c-124 -24 -239 -115 -299 -237 l-38 -76 -3 -1458 -2
-1458 -123 -1 c-67 -1 -441 -3 -832 -5 -799 -4 -761 0 -835 -80 -53 -58 -72
-105 -73 -179 -1 -110 58 -201 157 -246 39 -18 85 -19 851 -19 446 0 820 -3
832 -6 l23 -6 2 -1077 3 -1076 24 -57 c50 -122 176 -232 292 -257 70 -15 2318
-15 2388 0 116 25 245 138 294 259 21 52 22 71 25 368 l3 312 869 0 c616 0
876 3 893 11 43 19 47 46 47 295 l0 235 -25 24 -24 25 -858 0 c-472 0 -868 3
-881 6 l-22 6 2 1154 3 1154 -67 0 -68 0 -2 -1157 -3 -1158 -787 -3 -787 -2
-20 -26 c-20 -25 -21 -39 -21 -260 0 -247 4 -274 47 -293 17 -8 252 -11 799
-11 l775 0 -3 -302 -3 -303 -27 -50 c-31 -60 -77 -104 -138 -136 l-45 -24
-1170 0 -1170 0 -42 23 c-66 35 -110 79 -140 140 l-28 57 -3 1068 -2 1067 339
0 c373 0 388 2 463 62 118 93 119 295 2 398 -74 65 -74 65 -456 68 l-348 3 0
1417 c0 940 4 1432 11 1462 14 62 63 135 114 170 66 45 139 60 300 60 168 0
185 -7 185 -73 0 -61 28 -108 81 -135 l44 -22 661 2 660 3 37 25 c40 28 67 81
67 135 0 57 22 65 185 65 165 0 239 -15 301 -63 53 -40 100 -109 114 -167 7
-30 10 -207 8 -538 l-3 -492 90 1 c50 1 80 4 68 6 l-23 4 0 502 c0 393 -3 513
-14 553 -43 163 -180 288 -343 314 -72 12 -2270 11 -2331 -1z m-1859 -3333
c139 -58 141 -264 3 -327 -53 -24 -100 -24 -152 1 -106 52 -134 189 -56 282
47 55 134 74 205 44z m805 -107 c-2 -6 -8 -10 -13 -10 -5 0 -11 4 -13 10 -2 6
4 11 13 11 9 0 15 -5 13 -11z m-168 -13 c0 -9 -8 -12 -25 -8 -15 2 -25 0 -25
-7 0 -6 6 -11 13 -11 8 0 22 -9 33 -21 14 -15 16 -24 7 -37 -14 -24 -67 -23
-71 1 -3 16 -1 17 17 5 15 -9 23 -10 32 -1 8 8 3 15 -20 27 -29 15 -40 43 -24
59 12 13 63 7 63 -7z m448 -13 c12 -12 13 -18 4 -21 -16 -5 -16 -49 1 -55 6
-2 9 -8 5 -12 -15 -16 -38 5 -38 34 0 16 -5 31 -12 33 -9 3 -8 9 2 21 19 20
18 20 38 0z m-411 -25 l10 -23 7 23 c4 12 12 22 17 22 5 0 14 -10 19 -22 l9
-23 7 23 c7 24 24 30 24 8 0 -23 -22 -76 -31 -76 -5 0 -14 10 -19 23 l-9 22
-7 -22 c-3 -13 -10 -23 -15 -23 -8 0 -39 64 -39 81 0 17 17 9 27 -13z m128
-23 c0 -22 -5 -40 -12 -42 -9 -3 -13 9 -13 42 0 33 4 45 13 43 7 -3 12 -21 12
-43z m93 33 c26 -26 7 -78 -29 -78 -9 0 -19 -7 -23 -15 -13 -34 -26 -12 -26
45 l0 60 33 0 c18 0 38 -5 45 -12z m103 -15 c8 -21 5 -23 -27 -23 -23 0 -33
-4 -28 -11 3 -6 17 -8 31 -4 18 4 24 2 21 -7 -6 -18 -46 -22 -64 -8 -17 15
-18 52 -2 68 19 19 60 10 69 -15z m184 14 c13 -10 16 -21 11 -40 -12 -51 -86
-44 -86 7 0 42 39 59 75 33z m165 -6 c8 -14 9 -14 10 2 0 9 7 17 15 17 8 0 15
-8 15 -17 1 -17 1 -17 14 0 15 20 36 23 36 5 0 -9 3 -9 12 0 7 7 27 12 45 12
32 0 33 -1 33 -45 0 -44 -1 -45 -33 -45 -38 0 -57 15 -58 45 0 13 -4 9 -10
-12 -10 -35 -35 -44 -46 -17 -5 15 -7 15 -15 0 -12 -22 -38 -20 -38 2 0 26
-25 58 -34 44 -4 -7 -2 -12 4 -12 6 0 10 -10 8 -22 -2 -18 -10 -23 -33 -23
-27 0 -30 3 -31 35 -1 19 0 38 2 42 9 15 94 6 104 -11z m274 3 c9 -8 16 -19
16 -22 0 -15 -32 -52 -44 -52 -8 0 -16 -7 -20 -15 -13 -34 -26 -12 -26 45 0
60 0 60 29 60 16 0 37 -7 45 -16z m2761 -1454 c0 -59 -2 -67 -12 -53 -16 20
-17 77 -3 104 6 10 12 19 13 19 1 0 2 -32 2 -70z m765 -5 c0 -39 -13 -65 -33
-65 -5 0 -4 7 3 15 8 10 11 35 8 71 -4 50 -3 55 9 39 7 -11 13 -37 13 -60z
m940 50 c13 -14 27 -25 32 -25 4 0 18 11 30 25 12 14 28 25 37 25 10 0 3 -12
-19 -35 l-34 -35 34 -35 c44 -45 30 -59 -15 -15 l-35 34 -35 -34 c-25 -24 -35
-29 -35 -18 0 9 13 27 29 41 l30 25 -30 28 c-16 15 -29 31 -29 36 0 15 16 8
40 -17z m-2642 -14 c21 -20 32 -25 32 -15 0 19 17 18 29 -3 10 -17 10 -17 11
0 0 9 5 17 11 17 7 0 9 -9 5 -22 -3 -13 -6 -29 -6 -35 0 -7 -7 -13 -15 -13 -8
0 -15 8 -15 17 0 15 -2 14 -15 -3 -13 -16 -16 -17 -25 -4 -5 8 -10 23 -10 33
0 18 -48 43 -59 31 -3 -4 -1 -9 5 -11 55 -20 57 -67 2 -61 -17 2 -33 9 -36 16
-3 9 3 11 22 6 16 -4 26 -2 26 5 0 6 -6 11 -14 11 -7 0 -19 7 -26 15 -10 12
-10 18 0 30 19 23 42 18 78 -14z m662 -21 c0 -27 -4 -50 -10 -50 -5 0 -10 23
-10 50 0 28 5 50 10 50 6 0 10 -22 10 -50z m358 38 c7 -7 12 -24 12 -38 0 -32
-17 -50 -47 -50 -21 0 -23 4 -23 50 0 46 2 50 23 50 13 0 28 -5 35 -12z m91
-25 c7 -21 15 -44 17 -50 3 -7 -1 -13 -9 -13 -9 0 -17 6 -20 13 -3 9 -9 9 -27
-1 -12 -7 -24 -12 -26 -9 -8 8 28 97 40 97 7 0 18 -17 25 -37z m51 -13 c0 -27
-4 -50 -10 -50 -5 0 -10 23 -10 50 0 28 5 50 10 50 6 0 10 -22 10 -50z m251
18 l13 -32 13 32 c21 51 43 42 43 -18 0 -51 -19 -72 -21 -22 l-1 27 -11 -27
c-13 -34 -32 -36 -42 -5 l-8 22 -4 -22 c-8 -42 -23 -24 -23 27 0 59 20 68 41
18z m109 2 c4 0 13 7 20 15 20 24 34 17 17 -9 -14 -20 -14 -26 -2 -42 18 -24
19 -34 1 -34 -8 0 -17 8 -21 18 -6 16 -7 16 -19 0 -20 -28 -26 -22 -26 25 0
44 12 72 18 43 2 -9 7 -16 12 -16z m130 16 c8 -11 9 -20 2 -33 -7 -11 -7 -24
-1 -35 7 -13 6 -18 -5 -18 -7 0 -16 7 -20 15 -3 8 -10 15 -16 15 -5 0 -10 -7
-10 -15 0 -8 -4 -15 -10 -15 -5 0 -10 23 -10 50 0 48 1 50 29 50 16 0 34 -7
41 -14z m-869 -3 c6 -62 3 -83 -11 -81 -15 3 -30 53 -22 76 4 13 32 17 33 5z
m460 0 c5 -74 5 -83 -6 -83 -13 0 -28 67 -19 82 6 10 24 11 25 1z m-1081 -48
c0 -32 -2 -35 -30 -35 -23 0 -30 4 -30 20 0 11 6 20 14 20 8 0 18 5 22 11 4 8
-1 9 -16 4 -15 -5 -20 -4 -16 4 4 6 18 11 32 11 21 0 24 -5 24 -35z m78 2 c3
-22 -1 -30 -17 -34 -12 -3 -21 -12 -21 -19 0 -8 -7 -14 -15 -14 -11 0 -15 12
-15 51 l0 50 33 -3 c27 -3 33 -8 35 -31z m110 14 c3 -9 -2 -11 -17 -6 -15 5
-21 2 -21 -9 0 -9 9 -16 21 -16 11 0 17 -4 14 -10 -10 -16 -43 -12 -53 6 -16
29 -2 55 26 52 14 -2 27 -9 30 -17z m77 0 c10 -31 -5 -52 -34 -49 -26 3 -38
26 -27 54 8 21 53 18 61 -5z m123 -18 c2 -25 -1 -33 -12 -33 -11 0 -16 10 -16
31 0 17 -4 28 -10 24 -5 -3 -10 -17 -10 -31 0 -13 -4 -24 -10 -24 -5 0 -10 14
-10 31 0 17 -4 28 -10 24 -5 -3 -10 -17 -10 -31 0 -13 -4 -24 -10 -24 -5 0
-10 16 -10 36 l0 35 53 -3 c51 -3 52 -4 55 -35z m77 18 c8 -26 -4 -51 -26 -51
-10 0 -19 -7 -19 -15 0 -8 -4 -15 -10 -15 -5 0 -10 23 -10 50 0 49 1 50 29 50
20 0 32 -6 36 -19z m113 -3 c2 -13 -3 -18 -20 -19 -23 -1 -23 -1 2 -9 21 -6
22 -8 8 -14 -39 -17 -69 11 -54 50 8 21 60 14 64 -8z m120 0 c2 -13 -3 -18
-20 -19 l-23 -2 23 -4 c29 -6 28 -23 -2 -23 -30 0 -49 23 -41 50 8 27 58 24
63 -2z m467 2 c4 -12 1 -27 -5 -35 -27 -33 -78 -5 -65 35 4 14 15 20 35 20 20
0 31 -6 35 -20z m-1665 -75 l-75 -75 -34 35 c-41 40 -34 61 7 22 l28 -27 59
60 c33 33 66 60 74 60 9 0 -18 -34 -59 -75z m284 -69 c4 9 9 15 11 12 3 -3 -1
-20 -9 -39 -12 -27 -15 -29 -16 -12 0 12 -4 25 -10 28 -5 3 -10 12 -10 18 0 7
7 4 14 -6 13 -16 14 -16 20 -1z m223 -13 l10 -28 8 28 c11 39 25 33 24 -10 0
-28 -2 -33 -8 -19 -7 19 -8 19 -15 0 -7 -18 -8 -18 -21 -1 -13 18 -13 18 -18
0 -3 -10 -5 -1 -6 20 -1 44 11 48 26 10z m90 19 c14 11 15 10 9 -10 -5 -14 -3
-29 4 -37 8 -9 8 -15 2 -15 -5 0 -13 8 -17 18 -7 16 -8 15 -15 -3 -7 -15 -9
-10 -9 20 1 22 3 34 6 27 4 -10 8 -10 20 0z m78 -29 c0 -29 -1 -30 -17 -17
-15 14 -17 14 -21 -3 -3 -10 -5 -1 -6 20 -1 34 1 38 22 35 17 -2 22 -9 22 -35z
m532 -15 c-2 -13 -4 -5 -4 17 -1 22 1 32 4 23 2 -10 2 -28 0 -40z m106 29 c11
-4 17 -1 17 8 0 8 5 15 10 15 6 0 10 -15 10 -32 0 -30 -3 -33 -35 -35 -34 -3
-35 -2 -35 35 0 20 4 32 8 26 4 -6 15 -13 25 -17z m-43 -23 c0 -17 -6 -24 -19
-24 -22 0 -36 16 -22 24 5 4 11 0 14 -6 2 -7 7 -10 11 -7 4 4 0 13 -8 22 -17
17 -11 28 10 20 8 -3 14 -16 14 -29z m-919 14 c0 -10 2 -10 6 0 8 19 23 14 23
-8 0 -27 18 -25 23 3 4 19 4 18 6 -5 1 -21 -4 -28 -17 -28 -10 0 -23 5 -30 12
-9 9 -12 9 -12 0 0 -7 -9 -12 -20 -12 -15 0 -20 7 -20 25 0 18 5 25 20 25 11
0 20 -6 21 -12z m81 -13 c-2 -14 -6 -25 -8 -25 -2 0 -4 11 -4 25 0 14 4 25 9
25 4 0 6 -11 3 -25z m285 -12 c-3 -10 -5 -4 -5 12 0 17 2 24 5 18 2 -7 2 -21
0 -30z m49 28 c-18 -7 -18 -8 -3 -14 23 -9 22 -27 -2 -27 -13 0 -18 7 -18 25
0 19 5 25 21 24 20 0 20 -1 2 -8z m144 -17 c0 -17 -6 -24 -20 -24 -11 0 -20 6
-21 13 0 10 -2 10 -6 0 -8 -20 -21 -15 -26 10 -4 22 -4 22 -15 -3 l-11 -25 0
26 c-1 25 1 27 49 27 46 0 50 -2 50 -24z m75 8 c-3 -8 -5 -19 -5 -25 0 -7 -7
-3 -15 7 -13 17 -15 18 -15 3 0 -9 -4 -17 -10 -17 -5 0 -10 4 -10 9 0 5 -2 15
-5 23 -4 9 5 13 30 13 25 0 34 -4 30 -13z m105 -2 c8 -13 10 -12 10 3 0 12 8
17 30 17 25 0 30 -4 30 -25 0 -18 -5 -25 -20 -25 -11 0 -20 7 -20 15 0 8 5 15
11 15 5 0 7 -4 4 -10 -3 -5 -1 -10 4 -10 6 0 11 7 11 15 0 23 -36 18 -47 -7
l-11 -23 -10 25 c-10 24 -11 24 -11 3 -1 -18 -7 -23 -26 -23 -16 0 -25 6 -25
15 0 8 5 15 11 15 5 0 7 -4 4 -10 -3 -5 -1 -10 4 -10 18 0 12 28 -6 34 -10 2
-3 4 15 2 18 -1 37 -8 42 -16z m97 -17 c-3 -10 -5 -4 -5 12 0 17 2 24 5 18 2
-7 2 -21 0 -30z m213 22 c0 -8 -8 -15 -17 -16 -15 0 -15 -2 2 -9 19 -8 19 -9
-2 -9 -18 -1 -23 5 -23 24 0 18 5 25 20 25 11 0 20 -7 20 -15z"/>
<path d="M1427 3017 c-3 -8 -2 -20 3 -27 11 -18 42 -4 38 17 -4 22 -34 29 -41
10z"/>
<path d="M1538 3023 c7 -3 16 -2 19 1 4 3 -2 6 -13 5 -11 0 -14 -3 -6 -6z"/>
<path d="M1714 3015 c-7 -18 3 -35 21 -35 15 0 28 27 19 41 -8 14 -34 11 -40
-6z"/>
<path d="M2052 3008 c6 -18 28 -21 28 -4 0 9 -7 16 -16 16 -9 0 -14 -5 -12
-12z"/>
<path d="M2157 3014 c-8 -8 1 -24 14 -24 5 0 9 7 9 15 0 15 -12 20 -23 9z"/>
<path d="M5010 1590 c0 -21 4 -30 13 -27 6 2 12 14 12 27 0 13 -6 25 -12 28
-9 2 -13 -7 -13 -28z"/>
<path d="M5632 1608 c6 -18 28 -21 28 -4 0 9 -7 16 -16 16 -9 0 -14 -5 -12
-12z"/>
<path d="M4230 1581 c0 -12 5 -21 10 -21 6 0 10 6 10 14 0 8 -4 18 -10 21 -5
3 -10 -3 -10 -14z"/>
<path d="M4414 1586 c-8 -22 3 -33 18 -18 9 9 9 15 0 24 -9 9 -13 7 -18 -6z"/>
<path d="M4615 1587 c-4 -10 -5 -21 -1 -24 10 -10 18 4 13 24 -4 17 -4 17 -12
0z"/>
<path d="M4730 1590 c0 -5 5 -10 11 -10 5 0 7 5 4 10 -3 6 -8 10 -11 10 -2 0
-4 -4 -4 -10z"/>
<path d="M4850 1590 c0 -5 5 -10 11 -10 5 0 7 5 4 10 -3 6 -8 10 -11 10 -2 0
-4 -4 -4 -10z"/>
<path d="M5310 1575 c0 -8 5 -15 10 -15 6 0 10 7 10 15 0 8 -4 15 -10 15 -5 0
-10 -7 -10 -15z"/>
<path d="M4330 1440 c0 -5 7 -10 16 -10 8 0 12 5 9 10 -3 6 -10 10 -16 10 -5
0 -9 -4 -9 -10z"/>
<path d="M4980 1415 c0 -8 5 -15 10 -15 6 0 10 7 10 15 0 8 -4 15 -10 15 -5 0
-10 -7 -10 -15z"/>
<path d="M4010 1415 c0 -8 5 -15 10 -15 6 0 10 7 10 15 0 8 -4 15 -10 15 -5 0
-10 -7 -10 -15z"/>
<path d="M4570 1415 c0 -8 5 -15 10 -15 6 0 10 7 10 15 0 8 -4 15 -10 15 -5 0
-10 -7 -10 -15z"/>
<path d="M4613 6250 c-13 -5 -23 -11 -23 -12 0 -2 25 -3 55 -3 54 0 62 9 15
19 -14 3 -35 1 -47 -4z"/>
<path d="M2424 6238 c-4 -6 -3 -8 4 -4 7 4 12 -6 15 -26 4 -33 4 -33 5 5 2 36
-10 49 -24 25z"/>
<path d="M2474 6238 c-4 -6 -3 -8 4 -4 7 4 12 -6 15 -26 4 -33 4 -33 5 5 2 36
-10 49 -24 25z"/>
<path d="M2560 6225 c-15 -28 -14 -30 19 -40 17 -5 22 -4 19 6 -3 8 -12 13
-22 11 -20 -4 -21 17 -1 24 16 6 21 24 7 24 -5 0 -15 -11 -22 -25z"/>
<path d="M2627 6242 c6 -4 13 -21 16 -37 4 -27 4 -27 6 8 1 29 -3 37 -16 37
-12 0 -14 -3 -6 -8z"/>
<path d="M4530 6215 c0 -19 5 -35 10 -35 6 0 10 16 10 35 0 19 -4 35 -10 35
-5 0 -10 -16 -10 -35z"/>
<path d="M4757 6244 c-4 -4 -7 -16 -7 -26 0 -16 9 -18 66 -18 62 0 65 1 62 23
-3 19 -10 22 -58 25 -31 2 -59 0 -63 -4z"/>
<path d="M4495 6228 c-4 -10 -4 -26 0 -35 8 -17 8 -17 12 0 3 9 3 25 0 35 -4
16 -4 16 -12 0z"/>
<path d="M4623 6222 c-8 -5 2 -8 24 -9 25 -1 32 2 22 8 -17 11 -30 11 -46 1z"/>
<path d="M4460 6200 c0 -11 5 -20 10 -20 6 0 10 9 10 20 0 11 -4 20 -10 20 -5
0 -10 -9 -10 -20z"/>
<path d="M4431 6194 c0 -11 3 -14 6 -6 3 7 2 16 -1 19 -3 4 -6 -2 -5 -13z"/>
<path d="M4635 6190 c4 -6 11 -8 16 -5 14 9 11 15 -7 15 -8 0 -12 -5 -9 -10z"/>
<path d="M3467 5983 c-14 -14 -6 -34 18 -45 33 -15 32 -28 -2 -28 -23 -1 -25
-2 -11 -10 9 -6 23 -7 32 -4 25 9 19 39 -10 52 -29 14 -22 36 8 26 14 -4 18
-2 14 5 -8 12 -39 15 -49 4z"/>
<path d="M3536 5940 c12 -46 21 -56 29 -31 3 11 11 19 16 16 5 -4 9 1 9 9 0
25 -18 28 -26 4 l-6 -21 -15 24 -14 24 7 -25z"/>
<path d="M3602 5935 c-14 -31 -15 -35 -3 -35 9 0 25 49 18 56 -2 2 -9 -7 -15
-21z"/>
<path d="M3636 5944 c-9 -24 10 -49 38 -49 23 -1 26 3 26 32 0 30 -3 33 -29
33 -17 0 -31 -6 -35 -16z m49 -4 c4 -6 1 -18 -6 -26 -11 -13 -14 -13 -27 0 -8
8 -11 19 -8 25 9 14 33 14 41 1z"/>
<path d="M3721 5913 c1 -27 3 -41 6 -32 2 10 11 15 22 12 23 -6 44 21 36 47
-4 14 -15 20 -36 20 -28 0 -29 -1 -28 -47z m54 27 c4 -6 1 -18 -6 -26 -11 -13
-14 -13 -27 0 -8 8 -11 19 -8 25 9 14 33 14 41 1z"/>
<path d="M4602 5890 c0 -14 2 -19 5 -12 2 6 2 18 0 25 -3 6 -5 1 -5 -13z"/>
<path d="M3560 5176 c0 -29 4 -36 19 -36 10 0 24 7 32 16 16 20 1 48 -30 52
-18 3 -21 -1 -21 -32z m45 -1 c0 -11 -8 -21 -17 -23 -14 -3 -18 3 -18 23 0 20
4 26 18 23 9 -2 17 -12 17 -23z"/>
<path d="M3641 5178 c-6 -17 -9 -33 -7 -35 2 -3 7 6 11 19 4 13 12 26 17 29 7
4 7 9 0 13 -6 3 -15 -8 -21 -26z"/>
<path d="M3670 5175 c0 -5 5 -17 10 -25 5 -8 10 -10 10 -5 0 6 -5 17 -10 25
-5 8 -10 11 -10 5z"/>
<path d="M3877 5169 c8 -8 16 -8 30 0 16 9 14 10 -11 11 -22 0 -27 -3 -19 -11z"/>
<path d="M4842 4970 c-1 -36 1 -41 8 -22 5 12 14 22 19 22 5 0 12 -10 14 -22
4 -20 4 -19 6 5 1 20 -4 27 -18 27 -11 0 -22 8 -24 18 -3 9 -5 -3 -5 -28z"/>
<path d="M5011 4967 c-1 -28 3 -46 9 -42 5 3 7 12 4 19 -7 18 15 31 28 18 8
-8 7 -16 -2 -29 -13 -17 -13 -17 4 -1 22 20 15 48 -13 48 -11 0 -22 8 -24 18
-3 9 -5 -5 -6 -31z"/>
<path d="M4442 4974 c-1 -18 5 -37 13 -44 22 -18 45 5 43 44 l-1 31 -4 -32
c-3 -24 -9 -33 -23 -33 -14 0 -20 9 -23 33 l-4 32 -1 -31z"/>
<path d="M4789 4988 c-3 -26 3 -43 18 -58 14 -13 14 -13 2 8 -10 17 -11 25 -3
30 9 5 8 11 -2 20 -11 10 -14 10 -15 0z"/>
<path d="M5218 4988 c-6 -18 3 -58 13 -58 5 0 6 7 2 16 -3 9 -1 19 4 23 7 4 6
10 -2 18 -10 10 -14 10 -17 1z"/>
<path d="M5518 4988 c-6 -18 3 -58 13 -58 5 0 6 7 2 16 -3 9 -1 19 4 23 7 4 6
10 -2 18 -10 10 -14 10 -17 1z"/>
<path d="M6712 4965 c0 -16 2 -22 5 -12 2 9 2 23 0 30 -3 6 -5 -1 -5 -18z"/>
<path d="M4520 4969 c0 -7 8 -18 18 -26 16 -14 16 -14 -3 -8 -16 5 -18 4 -7
-6 18 -19 40 4 24 24 -7 8 -9 17 -5 20 3 4 -1 7 -10 7 -9 0 -17 -5 -17 -11z"/>
<path d="M4582 4950 c0 -19 2 -27 5 -17 2 9 2 25 0 35 -3 9 -5 1 -5 -18z"/>
<path d="M4611 4948 c1 -30 2 -30 8 -9 9 33 28 38 34 9 4 -20 4 -20 6 5 1 23
-3 27 -24 27 -22 0 -25 -4 -24 -32z"/>
<path d="M4683 4964 c-7 -18 4 -30 32 -37 18 -4 18 -5 -5 -15 l-25 -12 25 3
c21 2 25 8 28 40 3 34 1 37 -23 37 -14 0 -28 -7 -32 -16z m47 -9 c0 -8 -6 -15
-14 -15 -17 0 -28 14 -19 24 12 12 33 6 33 -9z"/>
<path d="M4914 4965 c-10 -24 22 -53 38 -36 11 10 10 11 -3 6 -10 -4 -20 -2
-24 4 -4 7 4 11 20 11 17 0 25 5 23 13 -7 19 -47 21 -54 2z m33 -1 c-3 -3 -12
-4 -19 -1 -8 3 -5 6 6 6 11 1 17 -2 13 -5z"/>
<path d="M5090 4965 c-11 -13 -11 -19 3 -33 14 -13 19 -14 29 -3 11 10 10 11
-4 6 -11 -4 -18 -2 -18 4 0 6 9 11 21 11 12 0 19 5 17 13 -7 18 -33 20 -48 2z"/>
<path d="M5160 4965 c0 -8 5 -15 10 -15 6 0 10 -5 10 -11 0 -5 -5 -7 -12 -3
-7 4 -8 3 -4 -4 7 -12 36 -5 36 9 0 5 -7 12 -16 16 -13 5 -13 7 -2 14 10 7 9
9 -4 9 -10 0 -18 -7 -18 -15z"/>
<path d="M5293 4964 c-3 -9 2 -23 12 -32 16 -16 17 -16 6 5 -7 14 -8 24 -1 28
16 10 31 -5 26 -23 -3 -10 -1 -24 4 -32 7 -11 10 -3 10 28 0 38 -2 42 -25 42
-14 0 -28 -7 -32 -16z"/>
<path d="M5371 4958 c-1 -30 10 -41 33 -32 10 4 16 17 15 33 -1 25 -1 25 -7 3
-4 -13 -11 -23 -17 -23 -5 0 -13 10 -17 23 -6 22 -6 22 -7 -4z"/>
<path d="M5444 4966 c-8 -21 13 -46 32 -39 20 8 13 47 -9 51 -9 2 -20 -4 -23
-12z m34 -13 c-4 -22 -22 -20 -26 1 -2 10 3 16 13 16 10 0 15 -7 13 -17z"/>
<path d="M5566 4964 c-10 -25 19 -53 36 -35 11 10 10 11 -4 6 -11 -4 -18 -2
-18 4 0 6 9 11 21 11 26 0 20 24 -8 28 -12 2 -23 -4 -27 -14z"/>
<path d="M6392 4955 c0 -16 2 -22 5 -12 2 9 2 23 0 30 -3 6 -5 -1 -5 -18z"/>
<path d="M6345 4949 c-4 -6 -5 -12 -2 -15 2 -3 7 2 10 11 7 17 1 20 -8 4z"/>
<path d="M3525 4805 c-21 -20 -25 -34 -25 -80 0 -66 12 -92 47 -106 35 -13 77
4 92 37 27 60 4 156 -41 168 -38 10 -48 7 -73 -19z m83 -17 c7 -7 12 -38 12
-69 0 -64 -13 -82 -56 -77 -21 2 -30 10 -36 33 -8 28 -3 98 8 117 8 12 58 10
72 -4z"/>
<path d="M3723 4818 c-31 -15 -46 -60 -40 -115 9 -84 81 -118 130 -61 12 14
17 38 17 80 0 49 -4 63 -25 83 -26 27 -47 30 -82 13z m77 -37 c5 -11 10 -38
10 -61 0 -23 -5 -50 -10 -61 -12 -22 -59 -26 -78 -7 -16 16 -16 120 0 136 19
19 66 15 78 -7z"/>
<path d="M3395 4810 c-3 -5 3 -10 14 -10 20 0 21 -6 21 -90 0 -53 4 -90 10
-90 6 0 10 40 10 100 0 99 0 100 -24 100 -14 0 -28 -4 -31 -10z"/>
<path d="M4610 4630 c0 -5 5 -10 11 -10 5 0 7 5 4 10 -3 6 -8 10 -11 10 -2 0
-4 -4 -4 -10z"/>
<path d="M4994 4625 c-3 -8 -14 -17 -25 -20 -18 -6 -28 -54 -11 -56 55 -6 52
-8 52 43 0 48 -6 60 -16 33z m-4 -50 c0 -8 -4 -15 -9 -15 -13 0 -22 16 -14 24
11 11 23 6 23 -9z"/>
<path d="M5297 4620 c-15 -21 -12 -70 4 -70 5 0 9 9 9 20 0 11 5 20 11 20 8 0
8 4 0 14 -9 11 -9 15 1 18 9 3 9 6 1 11 -7 4 -18 -2 -26 -13z"/>
<path d="M4432 4588 c2 -36 7 -44 26 -46 12 -2 22 1 22 7 0 6 -7 11 -15 11 -8
0 -15 5 -15 10 0 6 7 10 15 10 21 0 19 18 -2 23 -17 4 -17 5 0 6 27 2 20 21
-9 21 -23 0 -25 -3 -22 -42z"/>
<path d="M5740 4615 c-6 -7 -10 -26 -8 -42 2 -22 8 -28 28 -28 21 0 26 5 28
32 4 38 -27 63 -48 38z m30 -30 c0 -25 -14 -34 -24 -16 -8 12 3 41 15 41 5 0
9 -11 9 -25z"/>
<path d="M5933 4623 c-7 -3 -13 -9 -13 -15 0 -6 7 -8 15 -5 23 10 28 -11 5
-25 -28 -18 -25 -38 5 -38 14 0 25 5 25 10 0 6 -5 10 -12 10 -9 0 -9 3 0 12
26 26 7 62 -25 51z"/>
<path d="M6693 4614 c-3 -8 -1 -20 6 -27 14 -14 14 -30 0 -21 -7 4 -10 1 -7
-7 3 -8 13 -14 24 -14 23 0 32 34 12 47 -10 7 -10 11 0 15 6 2 10 9 6 14 -9
14 -34 10 -41 -7z"/>
<path d="M6760 4615 c-10 -12 -10 -18 0 -30 7 -8 10 -22 6 -30 -3 -8 -1 -15 4
-15 15 0 42 47 38 67 -4 23 -31 28 -48 8z m35 -15 c3 -5 -1 -10 -9 -10 -9 0
-16 5 -16 10 0 6 4 10 9 10 6 0 13 -4 16 -10z"/>
<path d="M6867 4601 c-20 -34 -13 -61 14 -61 23 0 34 23 23 48 -4 9 -6 23 -5
30 3 22 -14 13 -32 -17z m23 -31 c0 -5 -4 -10 -10 -10 -5 0 -10 5 -10 10 0 6
5 10 10 10 6 0 10 -4 10 -10z"/>
<path d="M6927 4623 c-11 -10 -8 -43 4 -43 6 0 8 -9 4 -21 -5 -14 -3 -20 5
-17 19 6 44 54 37 72 -6 16 -38 22 -50 9z m33 -23 c0 -5 -4 -10 -10 -10 -5 0
-10 5 -10 10 0 6 5 10 10 10 6 0 10 -4 10 -10z"/>
<path d="M4557 4613 c-8 -13 4 -61 17 -66 9 -4 12 6 11 31 -1 33 -17 53 -28
35z"/>
<path d="M4826 4611 c-7 -11 9 -57 23 -65 5 -4 12 -2 16 4 3 5 1 10 -4 10 -6
0 -11 7 -11 15 0 8 5 15 11 15 8 0 8 5 -1 15 -14 17 -26 19 -34 6z"/>
<path d="M5844 4606 c-3 -8 -4 -25 -2 -38 2 -17 9 -23 28 -23 22 0 25 5 28 38
3 34 1 37 -23 37 -14 0 -28 -6 -31 -14z m44 -24 c2 -15 -2 -22 -12 -22 -11 0
-16 9 -16 26 0 31 23 28 28 -4z"/>
<path d="M6002 4600 c-21 -33 -15 -60 12 -60 28 0 37 17 24 43 -5 9 -6 22 -3
27 3 6 0 10 -7 10 -7 0 -19 -9 -26 -20z m22 -41 c-3 -5 -10 -7 -15 -3 -5 3 -7
10 -3 15 3 5 10 7 15 3 5 -3 7 -10 3 -15z"/>
<path d="M6067 4613 c-4 -3 -7 -15 -7 -25 0 -15 5 -18 21 -13 16 5 20 3 17 -6
-3 -8 -12 -13 -22 -11 -9 2 -16 -2 -16 -8 0 -17 47 -11 54 7 5 11 -1 23 -15
34 -22 16 -22 17 -3 22 18 4 18 5 -2 6 -11 0 -24 -2 -27 -6z"/>
<path d="M6137 4613 c-4 -3 -7 -15 -7 -25 0 -15 5 -18 21 -13 16 5 20 3 17 -6
-3 -8 -12 -13 -22 -11 -9 2 -16 -2 -16 -8 0 -5 11 -10 25 -10 36 0 44 28 15
50 -22 17 -23 18 -4 23 18 4 18 5 -2 6 -11 0 -24 -2 -27 -6z"/>
<path d="M6216 4595 c-21 -31 -20 -35 4 -35 11 0 20 -5 20 -11 0 -8 4 -8 13 0
17 13 10 71 -8 71 -7 0 -20 -11 -29 -25z m24 -15 c0 -5 -5 -10 -11 -10 -5 0
-7 5 -4 10 3 6 8 10 11 10 2 0 4 -4 4 -10z"/>
<path d="M6310 4580 c0 -36 3 -40 25 -40 14 0 25 5 25 10 0 6 -8 10 -17 10
-16 0 -16 2 -3 11 11 8 12 12 3 16 -18 7 -16 21 5 26 10 3 6 5 -10 6 -26 1
-28 -2 -28 -39z"/>
<path d="M6378 4613 c6 -2 12 -18 12 -33 0 -16 5 -32 10 -35 6 -4 10 6 10 24
0 18 7 34 18 40 13 8 9 10 -23 10 -22 0 -34 -3 -27 -6z"/>
<path d="M6450 4580 c0 -22 5 -40 10 -40 6 0 10 7 10 15 0 8 7 15 15 15 8 0
15 -7 15 -15 0 -8 5 -15 10 -15 6 0 10 18 10 40 0 22 -4 40 -10 40 -5 0 -10
-7 -10 -15 0 -8 -7 -15 -15 -15 -8 0 -15 7 -15 15 0 8 -4 15 -10 15 -5 0 -10
-18 -10 -40z"/>
<path d="M4503 4594 c-3 -9 0 -20 8 -25 11 -7 11 -9 1 -9 -7 0 -10 -4 -7 -10
9 -15 25 -12 32 6 3 9 0 20 -8 25 -11 7 -11 9 -1 9 7 0 10 5 7 10 -9 15 -25
12 -32 -6z"/>
<path d="M4613 4575 c0 -22 2 -30 4 -17 2 12 2 30 0 40 -3 9 -5 -1 -4 -23z"/>
<path d="M4640 4572 c0 -20 4 -31 10 -27 6 3 10 15 10 26 0 10 5 19 10 19 6 0
10 -12 10 -26 0 -14 4 -23 10 -19 6 3 10 15 10 26 0 29 18 23 23 -8 4 -22 5
-20 3 6 -1 33 -2 34 -43 35 -42 1 -43 1 -43 -32z"/>
<path d="M4763 4603 c-16 -6 -17 -35 -2 -50 17 -17 49 -3 49 22 0 23 -23 36
-47 28z m27 -28 c0 -8 -4 -15 -10 -15 -5 0 -10 7 -10 15 0 8 5 15 10 15 6 0
10 -7 10 -15z"/>
<path d="M4893 4603 c-18 -7 -16 -50 3 -57 22 -8 22 -8 34 15 9 15 8 24 -1 35
-12 15 -16 16 -36 7z m24 -19 c-3 -3 -12 -4 -19 -1 -8 3 -5 6 6 6 11 1 17 -2
13 -5z"/>
<path d="M5058 4593 c-13 -16 -3 -43 17 -43 8 0 15 -5 15 -11 0 -6 -7 -9 -15
-5 -8 3 -15 1 -15 -5 0 -6 10 -9 23 -7 18 2 23 10 25 43 3 36 0 41 -18 41 -12
0 -26 -6 -32 -13z m34 -18 c0 -5 -5 -11 -11 -13 -6 -2 -11 4 -11 13 0 9 5 15
11 13 6 -2 11 -8 11 -13z"/>
<path d="M5143 4603 c-7 -3 -13 -15 -13 -28 0 -25 15 -34 43 -27 10 2 17 14
17 27 0 23 -23 36 -47 28z m27 -28 c0 -8 -7 -15 -15 -15 -8 0 -15 7 -15 15 0
8 7 15 15 15 8 0 15 -7 15 -15z"/>
<path d="M5210 4599 c-13 -8 -12 -12 4 -24 19 -15 19 -15 1 -15 -15 0 -16 -3
-7 -12 10 -9 16 -8 29 5 15 15 15 17 -1 23 -12 5 -14 9 -6 14 7 4 8 10 3 13
-5 3 -15 1 -23 -4z"/>
<path d="M5347 4598 c-9 -5 -17 -13 -17 -18 0 -17 31 -39 47 -33 15 6 14 7 -3
14 -17 7 -17 8 -1 8 20 1 23 26 4 34 -7 3 -21 1 -30 -5z m30 -14 c-3 -3 -12
-4 -19 -1 -8 3 -5 6 6 6 11 1 17 -2 13 -5z"/>
<path d="M5417 4595 c-18 -18 -13 -40 10 -50 22 -8 35 8 31 36 -4 28 -21 34
-41 14z m30 -11 c-3 -3 -12 -4 -19 -1 -8 3 -5 6 6 6 11 1 17 -2 13 -5z"/>
<path d="M5800 4550 c0 -5 7 -10 15 -10 8 0 15 5 15 10 0 6 -7 10 -15 10 -8 0
-15 -4 -15 -10z"/>
<path d="M6820 4550 c0 -5 5 -10 10 -10 6 0 10 5 10 10 0 6 -4 10 -10 10 -5 0
-10 -4 -10 -10z"/>
<path d="M6393 4360 c0 -25 2 -35 4 -22 2 12 2 32 0 45 -2 12 -4 2 -4 -23z"/>
<path d="M6503 4360 c0 -25 2 -35 4 -22 2 12 2 32 0 45 -2 12 -4 2 -4 -23z"/>
<path d="M3612 4156 c-2 -42 -4 -47 -17 -36 -8 7 -15 8 -15 4 0 -5 10 -15 21
-23 19 -11 24 -10 43 9 l21 22 -22 -11 c-21 -11 -22 -9 -26 36 l-3 48 -2 -49z"/>
<path d="M3540 3708 l0 -33 14 25 c13 26 12 40 -5 40 -5 0 -9 -15 -9 -32z"/>
<path d="M3587 3720 c-9 -11 -13 -20 -7 -20 5 0 12 6 17 13 5 8 10 2 14 -18 6
-29 7 -29 8 8 1 42 -7 46 -32 17z"/>
<path d="M3656 3725 c-11 -8 -18 -16 -15 -18 2 -1 15 -11 29 -22 l25 -20 -19
22 c-15 19 -16 25 -6 38 16 19 11 19 -14 0z"/>
<path d="M3737 3723 c5 -12 2 -15 -10 -10 -26 10 -20 -6 11 -28 16 -11 22 -13
15 -4 -7 8 -10 25 -6 37 3 13 1 22 -6 22 -6 0 -8 -7 -4 -17z"/>
<path d="M3863 3703 c16 -16 18 -16 34 0 16 16 15 17 -17 17 -32 0 -33 -1 -17
-17z"/>
<path d="M4052 3360 c0 -14 2 -19 5 -12 2 6 2 18 0 25 -3 6 -5 1 -5 -13z"/>
<path d="M4232 3360 c0 -14 2 -19 5 -12 2 6 2 18 0 25 -3 6 -5 1 -5 -13z"/>
<path d="M3577 2993 c-4 -3 -7 -13 -7 -22 0 -12 3 -11 14 4 8 11 19 16 30 12
25 -10 19 -34 -14 -59 -43 -32 -39 -48 13 -46 36 1 38 2 10 5 -18 2 -33 6 -33
8 0 2 14 17 30 34 26 26 29 34 20 51 -10 19 -49 27 -63 13z"/>
<path d="M4417 2994 c-4 -4 -7 -14 -7 -23 0 -12 3 -11 14 4 8 11 19 16 30 12
20 -8 21 -26 1 -33 -8 -4 -15 -10 -15 -15 0 -5 7 -9 15 -9 8 0 15 -9 15 -20 0
-23 -29 -27 -48 -8 -9 9 -12 9 -12 0 0 -18 33 -30 58 -21 21 8 30 38 15 53 -4
4 -7 19 -8 34 0 21 -5 28 -25 30 -14 2 -29 0 -33 -4z"/>
<path d="M2751 2485 c-39 -44 -39 -55 -1 -55 20 0 30 -5 30 -15 0 -20 18 -19
22 2 5 27 -3 103 -12 103 -4 0 -22 -16 -39 -35z m29 -20 c0 -18 -5 -25 -20
-25 -24 0 -25 8 -3 32 21 23 23 23 23 -7z"/>
<path d="M3576 2498 c-11 -42 -8 -48 24 -41 26 5 30 3 30 -16 0 -25 -26 -39
-43 -22 -6 6 -16 11 -22 11 -5 -1 0 -9 12 -19 26 -22 60 -17 68 9 8 26 -5 49
-32 56 -29 8 -25 26 8 35 22 6 21 7 -7 8 -25 1 -33 -4 -38 -21z"/>
<path d="M4443 2498 c-40 -44 -46 -65 -23 -88 12 -12 26 -17 37 -13 37 14 43
45 13 70 -18 16 -18 18 -3 35 9 10 12 18 6 18 -5 0 -19 -10 -30 -22z m27 -58
c0 -24 -26 -38 -42 -22 -16 16 -2 42 22 42 13 0 20 -7 20 -20z"/>
<path d="M3586 2088 c-12 -7 -16 -17 -12 -32 3 -11 1 -28 -4 -36 -13 -21 7
-50 34 -50 34 0 45 20 39 68 -6 47 -28 66 -57 50z m40 -19 c7 -12 -15 -31 -28
-23 -4 3 -8 12 -8 20 0 17 26 19 36 3z m2 -62 c4 -20 -25 -34 -40 -19 -15 15
-1 44 19 40 10 -2 19 -11 21 -21z"/>
<path d="M4426 2088 c-20 -11 -21 -51 -1 -68 11 -9 12 -17 4 -31 -12 -24 -1
-25 18 -1 36 45 44 62 38 80 -7 23 -36 33 -59 20z m41 -19 c16 -16 5 -39 -17
-39 -23 0 -34 16 -26 35 6 18 28 19 43 4z"/>
<path d="M2757 2083 l33 -4 -26 -51 c-14 -27 -23 -52 -21 -55 5 -4 67 99 67
111 0 3 -19 5 -42 4 -37 -1 -39 -2 -11 -5z"/>
<path d="M2750 1550 c0 -5 5 -10 10 -10 6 0 10 5 10 10 0 6 -4 10 -10 10 -5 0
-10 -4 -10 -10z"/>
<path d="M3775 983 c-73 -38 -105 -90 -105 -170 0 -67 33 -122 90 -150 44 -23
48 -23 479 -23 414 0 437 1 476 20 53 25 86 71 93 126 10 91 -23 155 -99 194
-36 19 -61 20 -471 20 -375 -1 -437 -3 -463 -17z m259 -129 c26 -10 18 -25 -9
-18 -21 5 -25 3 -24 -17 0 -13 3 -18 6 -11 8 21 43 14 43 -9 0 -17 -5 -20 -32
-17 -26 2 -34 8 -36 26 -3 23 13 52 28 52 5 0 15 -3 24 -6z m107 -11 c5 -48 3
-63 -8 -63 -7 0 -14 10 -14 23 l-2 22 -4 -22 c-3 -17 -11 -23 -29 -23 -22 0
-25 4 -22 28 2 23 7 27 31 25 15 -1 27 2 27 8 0 11 20 12 21 2z m245 -32 c2
-43 -20 -35 -24 8 -3 24 0 32 10 29 7 -3 13 -19 14 -37z m-172 23 c18 -7 23
-74 6 -74 -5 0 -10 5 -10 10 0 6 -7 10 -15 10 -15 0 -21 40 -8 53 8 8 8 8 27
1z m90 -8 c18 24 46 11 46 -21 0 -20 -5 -25 -25 -25 -14 0 -25 6 -25 13 0 9
-3 9 -9 -1 -13 -21 -46 -10 -49 16 -2 12 1 22 7 22 6 0 11 -8 12 -17 0 -13 3
-11 11 7 9 21 12 22 15 7 4 -17 5 -17 17 -1z m176 3 c-3 -3 1 -13 9 -22 16
-20 18 -19 -41 -23 -35 -2 -48 1 -52 13 -10 25 11 40 51 38 21 0 36 -3 33 -6z"/>
<path d="M4315 810 c-3 -5 -1 -10 4 -10 6 0 11 5 11 10 0 6 -2 10 -4 10 -3 0
-8 -4 -11 -10z"/>
<path d="M2580 832 c0 -10 22 -32 32 -32 15 0 8 15 -12 28 -11 7 -20 9 -20 4z"/>
<path d="M2627 833 c-2 -5 -1 -19 4 -33 7 -23 7 -23 8 8 1 31 -3 40 -12 25z"/>
<path d="M3258 810 c2 -16 6 -30 8 -30 2 0 4 14 4 30 0 17 -4 30 -8 30 -5 0
-7 -13 -4 -30z"/>
<path d="M3302 824 c-7 -8 -8 -14 -3 -14 10 0 25 19 20 25 -2 1 -10 -3 -17
-11z"/>
<path d="M2664 809 c-3 -6 -1 -16 5 -22 9 -9 11 -8 6 6 -5 12 -2 17 10 17 11
0 15 -5 11 -15 -3 -8 -1 -15 4 -15 6 0 10 9 10 20 0 22 -34 28 -46 9z"/>
<path d="M2734 800 c0 -9 6 -17 13 -17 7 0 13 8 13 17 0 9 -6 17 -13 17 -7 0
-13 -8 -13 -17z"/>
<path d="M2880 800 c0 -11 5 -20 10 -20 6 0 10 9 10 20 0 11 -4 20 -10 20 -5
0 -10 -9 -10 -20z"/>
<path d="M2933 813 c11 -3 16 -11 13 -19 -3 -8 -1 -14 4 -14 6 0 10 9 10 20 0
14 -6 20 -22 19 -19 -1 -19 -2 -5 -6z"/>
<path d="M2980 816 c0 -2 9 -6 20 -9 11 -3 20 -1 20 4 0 5 -9 9 -20 9 -11 0
-20 -2 -20 -4z"/>
<path d="M3040 800 c0 -11 4 -20 10 -20 5 0 6 8 3 17 -5 12 -2 15 10 10 9 -3
17 -2 17 3 0 6 -9 10 -20 10 -13 0 -20 -7 -20 -20z"/>
<path d="M3104 809 c-3 -6 -1 -16 5 -22 9 -9 11 -8 6 6 -5 12 -2 17 9 17 12 0
15 -7 12 -25 -3 -14 0 -25 5 -25 5 0 9 14 9 30 0 23 -5 30 -19 30 -11 0 -23
-5 -27 -11z"/>
<path d="M3170 801 c0 -11 4 -22 9 -25 4 -3 6 6 3 19 -5 30 -12 33 -12 6z"/>
<path d="M3195 810 c3 -5 8 -10 11 -10 2 0 4 5 4 10 0 6 -5 10 -11 10 -5 0 -7
-4 -4 -10z"/>
<path d="M3345 799 c-4 -6 -4 -13 -1 -16 3 -4 6 0 6 8 0 11 2 11 10 -1 8 -13
10 -12 10 3 0 19 -15 23 -25 6z"/>
<path d="M3130 485 c-10 -12 -10 -16 1 -20 8 -3 230 -4 494 -3 419 3 480 5
480 18 0 13 -61 15 -481 18 -418 2 -483 0 -494 -13z"/>
</g>
</svg>
