<svg version="1.1" viewBox="0.0 0.0 2000.0 2000.0" fill="none" stroke="none" stroke-linecap="square" stroke-miterlimit="10" xmlns:xlink="http://www.w3.org/1999/xlink" xmlns="http://www.w3.org/2000/svg"><clipPath id="p.0"><path d="m0 0l2000.0 0l0 2000.0l-2000.0 0l0 -2000.0z" clip-rule="nonzero"/></clipPath><g clip-path="url(#p.0)"><path fill="#000000" fill-opacity="0.0" d="m0 0l2000.0 0l0 2000.0l-2000.0 0z" fill-rule="evenodd"/><path fill="#000000" fill-opacity="0.0" d="m193.8605 1762.5747l209.95276 -276.44092" fill-rule="evenodd"/><path stroke="#e5daea" stroke-width="16.0" stroke-linejoin="round" stroke-linecap="butt" d="m193.8605 1762.5747l209.95276 -276.44092" fill-rule="evenodd"/><path fill="#000000" fill-opacity="0.0" d="m403.81152 1486.1377l78.77167 -412.4724" fill-rule="evenodd"/><path stroke="#e5daea" stroke-width="16.0" stroke-linejoin="round" stroke-linecap="butt" d="m403.81152 1486.1377l78.77167 -412.4724" fill-rule="evenodd"/><path fill="#000000" fill-opacity="0.0" d="m482.60696 1077.0831l251.3071 -300.59845" fill-rule="evenodd"/><path stroke="#e5daea" stroke-width="16.0" stroke-linejoin="round" stroke-linecap="butt" d="m482.60696 1077.0831l251.3071 -300.59845" fill-rule="evenodd"/><path fill="#000000" fill-opacity="0.0" d="m723.53735 783.3884l351.08667 -210.74011" fill-rule="evenodd"/><path stroke="#e5daea" stroke-width="16.0" stroke-linejoin="round" stroke-linecap="butt" d="m723.53735 783.3884l351.08667 -210.74011" fill-rule="evenodd"/><path fill="#000000" fill-opacity="0.0" d="m1074.6184 572.6234l326.99207 -359.37006" fill-rule="evenodd"/><path stroke="#e5daea" stroke-width="16.0" stroke-linejoin="round" stroke-linecap="butt" d="m1074.6184 572.6234l326.99207 -359.37006" fill-rule="evenodd"/><g filter="url(#shadowFilter-p.1)"><use xlink:href="#p.1" transform="matrix(1.0 0.0 0.0 1.0 0.0 2.0)"/></g><defs><filter id="shadowFilter-p.1" filterUnits="userSpaceOnUse"><feGaussianBlur in="SourceAlpha" stdDeviation="10.5" result="blur"/><feComponentTransfer in="blur" color-interpolation-filters="sRGB"><feFuncR type="linear" slope="0" intercept="0.8"/><feFuncG type="linear" slope="0" intercept="0.8"/><feFuncB type="linear" slope="0" intercept="0.8"/><feFuncA type="linear" slope="0.84" intercept="0"/></feComponentTransfer></filter></defs><g id="p.1"><path fill="#e5daea" d="m117.34777 1773.406l0 0c0 -42.452026 34.280174 -76.86621 76.56693 -76.86621l0 0c20.306808 0 39.781906 8.098389 54.14099 22.51355c14.35907 14.415283 22.425934 33.96643 22.425934 54.35266l0 0c0 42.451904 -34.28018 76.86609 -76.566925 76.86609l0 0c-42.28676 0 -76.56693 -34.414185 -76.56693 -76.86609z" fill-rule="evenodd"/><path stroke="#ffffff" stroke-width="16.0" stroke-linejoin="round" stroke-linecap="butt" d="m117.34777 1773.406l0 0c0 -42.452026 34.280174 -76.86621 76.56693 -76.86621l0 0c20.306808 0 39.781906 8.098389 54.14099 22.51355c14.35907 14.415283 22.425934 33.96643 22.425934 54.35266l0 0c0 42.451904 -34.28018 76.86609 -76.566925 76.86609l0 0c-42.28676 0 -76.56693 -34.414185 -76.56693 -76.86609z" fill-rule="evenodd"/></g><g filter="url(#shadowFilter-p.2)"><use xlink:href="#p.2" transform="matrix(1.0 0.0 0.0 1.0 0.0 2.0)"/></g><defs><filter id="shadowFilter-p.2" filterUnits="userSpaceOnUse"><feGaussianBlur in="SourceAlpha" stdDeviation="10.5" result="blur"/><feComponentTransfer in="blur" color-interpolation-filters="sRGB"><feFuncR type="linear" slope="0" intercept="0.8"/><feFuncG type="linear" slope="0" intercept="0.8"/><feFuncB type="linear" slope="0" intercept="0.8"/><feFuncA type="linear" slope="0.84" intercept="0"/></feComponentTransfer></filter></defs><g id="p.2"><path fill="#e5daea" d="m329.46097 1490.4431l0 0c0 -42.452026 34.28018 -76.86609 76.566925 -76.86609l0 0c20.306824 0 39.78192 8.098267 54.14099 22.51355c14.3591 14.415161 22.425934 33.96631 22.425934 54.35254l0 0c0 42.452026 -34.28018 76.86609 -76.566925 76.86609l0 0c-42.286743 0 -76.566925 -34.414062 -76.566925 -76.86609z" fill-rule="evenodd"/><path stroke="#ffffff" stroke-width="16.0" stroke-linejoin="round" stroke-linecap="butt" d="m329.46097 1490.4431l0 0c0 -42.452026 34.28018 -76.86609 76.566925 -76.86609l0 0c20.306824 0 39.78192 8.098267 54.14099 22.51355c14.3591 14.415161 22.425934 33.96631 22.425934 54.35254l0 0c0 42.452026 -34.28018 76.86609 -76.566925 76.86609l0 0c-42.286743 0 -76.566925 -34.414062 -76.566925 -76.86609z" fill-rule="evenodd"/></g><g filter="url(#shadowFilter-p.3)"><use xlink:href="#p.3" transform=""/></g><defs><filter id="shadowFilter-p.3" filterUnits="userSpaceOnUse"><feGaussianBlur in="SourceAlpha" stdDeviation="10.0" result="blur"/><feComponentTransfer in="blur" color-interpolation-filters="sRGB"><feFuncR type="linear" slope="0" intercept="0.8"/><feFuncG type="linear" slope="0" intercept="0.8"/><feFuncB type="linear" slope="0" intercept="0.8"/><feFuncA type="linear" slope="0.84" intercept="0"/></feComponentTransfer></filter></defs><g id="p.3"><path fill="#e5daea" d="m419.48553 1076.9548l0 0c0 -42.452026 34.28018 -76.86615 76.566956 -76.86615l0 0c20.306824 0 39.78192 8.098389 54.14099 22.51361c14.35907 14.415161 22.425903 33.96643 22.425903 54.35254l0 0c0 42.452026 -34.28015 76.86609 -76.566895 76.86609l0 0c-42.286774 0 -76.566956 -34.414062 -76.566956 -76.86609z" fill-rule="evenodd"/><path stroke="#ffffff" stroke-width="16.0" stroke-linejoin="round" stroke-linecap="butt" d="m419.48553 1076.9548l0 0c0 -42.452026 34.28018 -76.86615 76.566956 -76.86615l0 0c20.306824 0 39.78192 8.098389 54.14099 22.51361c14.35907 14.415161 22.425903 33.96643 22.425903 54.35254l0 0c0 42.452026 -34.28015 76.86609 -76.566895 76.86609l0 0c-42.286774 0 -76.566956 -34.414062 -76.566956 -76.86609z" fill-rule="evenodd"/></g><g filter="url(#shadowFilter-p.4)"><use xlink:href="#p.4" transform="matrix(1.0 0.0 0.0 1.0 0.0 2.0)"/></g><defs><filter id="shadowFilter-p.4" filterUnits="userSpaceOnUse"><feGaussianBlur in="SourceAlpha" stdDeviation="10.5" result="blur"/><feComponentTransfer in="blur" color-interpolation-filters="sRGB"><feFuncR type="linear" slope="0" intercept="0.8"/><feFuncG type="linear" slope="0" intercept="0.8"/><feFuncB type="linear" slope="0" intercept="0.8"/><feFuncA type="linear" slope="0.84" intercept="0"/></feComponentTransfer></filter></defs><g id="p.4"><path fill="#e5daea" d="m676.42316 773.6528l0 0c0 -42.451965 34.280212 -76.86615 76.566956 -76.86615l0 0c20.306824 0 39.78192 8.098389 54.14099 22.51361c14.35907 14.415161 22.425903 33.96637 22.425903 54.35254l0 0c0 42.452026 -34.28015 76.86615 -76.566895 76.86615l0 0c-42.286743 0 -76.566956 -34.414124 -76.566956 -76.86615z" fill-rule="evenodd"/><path stroke="#ffffff" stroke-width="16.0" stroke-linejoin="round" stroke-linecap="butt" d="m676.42316 773.6528l0 0c0 -42.451965 34.280212 -76.86615 76.566956 -76.86615l0 0c20.306824 0 39.78192 8.098389 54.14099 22.51361c14.35907 14.415161 22.425903 33.96637 22.425903 54.35254l0 0c0 42.452026 -34.28015 76.86615 -76.566895 76.86615l0 0c-42.286743 0 -76.566956 -34.414124 -76.566956 -76.86615z" fill-rule="evenodd"/></g><g filter="url(#shadowFilter-p.5)"><use xlink:href="#p.5" transform="matrix(1.0 0.0 0.0 1.0 0.0 2.0)"/></g><defs><filter id="shadowFilter-p.5" filterUnits="userSpaceOnUse"><feGaussianBlur in="SourceAlpha" stdDeviation="10.5" result="blur"/><feComponentTransfer in="blur" color-interpolation-filters="sRGB"><feFuncR type="linear" slope="0" intercept="0.8"/><feFuncG type="linear" slope="0" intercept="0.8"/><feFuncB type="linear" slope="0" intercept="0.8"/><feFuncA type="linear" slope="0.84" intercept="0"/></feComponentTransfer></filter></defs><g id="p.5"><path fill="#e5daea" d="m1003.8407 568.6451l0 0c0 -42.451965 34.28015 -76.86612 76.566895 -76.86612l0 0c20.306885 0 39.781982 8.098358 54.14099 22.51358c14.359131 14.415161 22.426025 33.96637 22.426025 54.35254l0 0c0 42.452026 -34.280273 76.86615 -76.56702 76.86615l0 0c-42.286743 0 -76.566895 -34.414124 -76.566895 -76.86615z" fill-rule="evenodd"/><path stroke="#ffffff" stroke-width="16.0" stroke-linejoin="round" stroke-linecap="butt" d="m1003.8407 568.6451l0 0c0 -42.451965 34.28015 -76.86612 76.566895 -76.86612l0 0c20.306885 0 39.781982 8.098358 54.14099 22.51358c14.359131 14.415161 22.426025 33.96637 22.426025 54.35254l0 0c0 42.452026 -34.280273 76.86615 -76.56702 76.86615l0 0c-42.286743 0 -76.566895 -34.414124 -76.566895 -76.86615z" fill-rule="evenodd"/></g><g filter="url(#shadowFilter-p.6)"><use xlink:href="#p.6" transform="matrix(1.0 0.0 0.0 1.0 0.0 2.0)"/></g><defs><filter id="shadowFilter-p.6" filterUnits="userSpaceOnUse"><feGaussianBlur in="SourceAlpha" stdDeviation="10.5" result="blur"/><feComponentTransfer in="blur" color-interpolation-filters="sRGB"><feFuncR type="linear" slope="0" intercept="0.8"/><feFuncG type="linear" slope="0" intercept="0.8"/><feFuncB type="linear" slope="0" intercept="0.8"/><feFuncA type="linear" slope="0.84" intercept="0"/></feComponentTransfer></filter></defs><g id="p.6"><path fill="#b62b3e" d="m1326.622 226.59317l0 0c0 -42.451996 34.28015 -76.866135 76.566895 -76.866135l0 0c20.306885 0 39.781982 8.098373 54.14099 22.513565c14.359131 14.415207 22.426025 33.9664 22.426025 54.35257l0 0c0 42.451996 -34.280273 76.86615 -76.56702 76.86615l0 0c-42.286743 0 -76.566895 -34.414154 -76.566895 -76.86615z" fill-rule="evenodd"/><path stroke="#ffffff" stroke-width="16.0" stroke-linejoin="round" stroke-linecap="butt" d="m1326.622 226.59317l0 0c0 -42.451996 34.28015 -76.866135 76.566895 -76.866135l0 0c20.306885 0 39.781982 8.098373 54.14099 22.513565c14.359131 14.415207 22.426025 33.9664 22.426025 54.35257l0 0c0 42.451996 -34.280273 76.86615 -76.56702 76.86615l0 0c-42.286743 0 -76.566895 -34.414154 -76.566895 -76.86615z" fill-rule="evenodd"/></g><path fill="#000000" fill-opacity="0.0" d="m117.34908 1735.4384l153.13385 0l0 75.93701l-153.13385 0z" fill-rule="evenodd"/><path fill="#000000" d="m193.91414 1789.707q-3.75 0 -6.390625 -2.046875q-2.625 -2.046875 -4.015625 -5.953125q-1.390625 -3.90625 -1.390625 -9.4375q0 -5.5 1.390625 -9.390625q1.40625 -3.90625 4.046875 -5.96875q2.65625 -2.0625 6.359375 -2.0625q3.71875 0 6.359375 2.0625q2.640625 2.0625 4.03125 5.96875q1.40625 3.890625 1.40625 9.390625q0 5.53125 -1.390625 9.4375q-1.390625 3.90625 -4.03125 5.953125q-2.625 2.046875 -6.375 2.046875zm0 -3.65625q3.71875 0 5.765625 -3.578125q2.0625 -3.578125 2.0625 -10.203125q0 -4.40625 -0.9375 -7.5q-0.9375 -3.09375 -2.6875 -4.71875q-1.75 -1.625 -4.203125 -1.625q-3.671875 0 -5.75 3.625q-2.0625 3.609375 -2.0625 10.21875q0 4.40625 0.921875 7.5q0.921875 3.078125 2.671875 4.6875q1.75 1.59375 4.21875 1.59375z" fill-rule="nonzero"/><path fill="#000000" fill-opacity="0.0" d="m1187.5643 530.6772l477.82678 0l0 75.93701l-477.82678 0z" fill-rule="evenodd"/><path fill="#000000" d="m1200.6737 584.4772l0 -33.9375l20.34375 0l0 3.65625l-16.234375 0l0 11.453125l14.71875 0l0 3.65625l-14.71875 0l0 15.171875l-4.109375 0zm26.839355 0l0 -25.453125l3.90625 0l0 25.453125l-3.90625 0zm1.984375 -29.6875q-1.140625 0 -1.96875 -0.78125q-0.8125 -0.78125 -0.8125 -1.875q0 -1.09375 0.8125 -1.859375q0.828125 -0.78125 1.96875 -0.78125q1.140625 0 1.953125 0.78125q0.828125 0.765625 0.828125 1.859375q0 1.09375 -0.828125 1.875q-0.8125 0.78125 -1.953125 0.78125zm12.98938 14.375l0 15.3125l-3.90625 0l0 -25.453125l3.78125 0l0 3.984375l0.328125 0q0.890625 -1.9375 2.71875 -3.125q1.828125 -1.1875 4.703125 -1.1875q2.578125 0 4.515625 1.0625q1.953125 1.046875 3.015625 3.171875q1.078125 2.125 1.078125 5.375l0 16.171875l-3.90625 0l0 -15.90625q0 -3.0 -1.5625 -4.671875q-1.546875 -1.6875 -4.265625 -1.6875q-1.875 0 -3.34375 0.8125q-1.46875 0.8125 -2.3125 2.375q-0.84375 1.546875 -0.84375 3.765625zm30.882568 15.90625q-2.40625 0 -4.390625 -0.921875q-1.96875 -0.921875 -3.125 -2.65625q-1.15625 -1.75 -1.15625 -4.234375q0 -2.1875 0.859375 -3.546875q0.859375 -1.375 2.296875 -2.15625q1.4375 -0.78125 3.1875 -1.171875q1.75 -0.390625 3.53125 -0.625q2.3125 -0.296875 3.765625 -0.453125q1.453125 -0.15625 2.125 -0.53125q0.671875 -0.390625 0.671875 -1.328125l0 -0.140625q0 -2.4375 -1.34375 -3.796875q-1.328125 -1.359375 -4.03125 -1.359375q-2.796875 0 -4.390625 1.234375q-1.59375 1.21875 -2.234375 2.609375l-3.71875 -1.328125q1.0 -2.328125 2.65625 -3.625q1.671875 -1.296875 3.65625 -1.8125q1.984375 -0.53125 3.90625 -0.53125q1.21875 0 2.8125 0.296875q1.609375 0.28125 3.109375 1.1875q1.5 0.890625 2.484375 2.703125q1.0 1.796875 1.0 4.828125l0 16.765625l-3.90625 0l0 -3.453125l-0.203125 0q-0.40625 0.828125 -1.328125 1.78125q-0.921875 0.9375 -2.46875 1.609375q-1.546875 0.65625 -3.765625 0.65625zm0.59375 -3.515625q2.328125 0 3.921875 -0.90625q1.609375 -0.90625 2.421875 -2.34375q0.828125 -1.453125 0.828125 -3.046875l0 -3.578125q-0.25 0.296875 -1.09375 0.546875q-0.828125 0.234375 -1.921875 0.421875q-1.078125 0.171875 -2.109375 0.296875q-1.015625 0.109375 -1.640625 0.203125q-1.53125 0.1875 -2.84375 0.640625q-1.3125 0.4375 -2.125 1.3125q-0.796875 0.859375 -0.796875 2.34375q0 2.046875 1.515625 3.078125q1.515625 1.03125 3.84375 1.03125zm22.138428 -31.015625l0 33.9375l-3.90625 0l0 -33.9375l3.90625 0zm25.192505 14.1875l-3.515625 1.0q-0.328125 -0.890625 -0.96875 -1.71875q-0.640625 -0.84375 -1.734375 -1.390625q-1.09375 -0.546875 -2.796875 -0.546875q-2.34375 0 -3.890625 1.078125q-1.546875 1.0625 -1.546875 2.703125q0 1.453125 1.0625 2.3125q1.0625 0.84375 3.3125 1.40625l3.78125 0.921875q3.40625 0.828125 5.078125 2.53125q1.671875 1.6875 1.671875 4.359375q0 2.1875 -1.25 3.921875q-1.25 1.71875 -3.484375 2.71875q-2.234375 0.984375 -5.203125 0.984375q-3.890625 0 -6.453125 -1.6875q-2.546875 -1.6875 -3.21875 -4.9375l3.703125 -0.9375q0.53125 2.0625 2.015625 3.09375q1.484375 1.015625 3.890625 1.015625q2.734375 0 4.34375 -1.15625q1.625 -1.171875 1.625 -2.8125q0 -1.328125 -0.9375 -2.234375q-0.921875 -0.90625 -2.84375 -1.34375l-4.25 -1.0q-3.484375 -0.828125 -5.125 -2.578125q-1.625 -1.75 -1.625 -4.375q0 -2.15625 1.21875 -3.8125q1.21875 -1.65625 3.328125 -2.59375q2.109375 -0.953125 4.796875 -0.953125q3.78125 0 5.9375 1.65625q2.15625 1.65625 3.078125 4.375z" fill-rule="nonzero"/><path fill="#000000" fill-opacity="0.0" d="m1514.5564 188.62466l368.09448 0l0 75.93701l-368.09448 0z" fill-rule="evenodd"/><path fill="#000000" d="m1533.822 242.42467l-9.265625 -33.9375l4.171875 0l7.09375 27.640625l0.328125 0l7.21875 -27.640625l4.640625 0l7.21875 27.640625l0.34375 0l7.078125 -27.640625l4.1875 0l-9.28125 33.9375l-4.25 0l-7.484375 -27.046875l-0.265625 0l-7.484375 27.046875l-4.25 0zm37.582764 0l0 -25.453125l3.90625 0l0 25.453125l-3.90625 0zm1.984375 -29.6875q-1.140625 0 -1.96875 -0.78125q-0.8125 -0.78125 -0.8125 -1.875q0 -1.09375 0.8125 -1.859375q0.828125 -0.78125 1.96875 -0.78125q1.140625 0 1.953125 0.78125q0.828125 0.765625 0.828125 1.859375q0 1.09375 -0.828125 1.875q-0.8125 0.78125 -1.953125 0.78125zm12.98938 14.375l0 15.3125l-3.90625 0l0 -25.453125l3.78125 0l0 3.984375l0.328125 0q0.890625 -1.9375 2.71875 -3.125q1.828125 -1.1875 4.703125 -1.1875q2.578125 0 4.515625 1.0625q1.953125 1.046875 3.015625 3.171875q1.078125 2.125 1.078125 5.375l0 16.171875l-3.90625 0l0 -15.90625q0 -3.0 -1.5625 -4.671875q-1.546875 -1.6875 -4.265625 -1.6875q-1.875 0 -3.34375 0.8125q-1.46875 0.8125 -2.3125 2.375q-0.84375 1.546875 -0.84375 3.765625zm27.304321 0l0 15.3125l-3.90625 0l0 -25.453125l3.78125 0l0 3.984375l0.328125 0q0.890625 -1.9375 2.71875 -3.125q1.828125 -1.1875 4.703125 -1.1875q2.578125 0 4.515625 1.0625q1.953125 1.046875 3.015625 3.171875q1.078125 2.125 1.078125 5.375l0 16.171875l-3.90625 0l0 -15.90625q0 -3.0 -1.5625 -4.671875q-1.546875 -1.6875 -4.265625 -1.6875q-1.875 0 -3.34375 0.8125q-1.46875 0.8125 -2.3125 2.375q-0.84375 1.546875 -0.84375 3.765625zm34.07007 15.84375q-3.671875 0 -6.34375 -1.625q-2.65625 -1.640625 -4.09375 -4.578125q-1.421875 -2.9375 -1.421875 -6.859375q0 -3.90625 1.421875 -6.890625q1.4375 -3.0 4.015625 -4.671875q2.578125 -1.6875 6.015625 -1.6875q2.0 0 3.9375 0.671875q1.9375 0.65625 3.515625 2.140625q1.59375 1.484375 2.53125 3.921875q0.953125 2.421875 0.953125 5.984375l0 1.65625l-19.609375 0l0 -3.375l15.640625 0q0 -2.15625 -0.859375 -3.84375q-0.84375 -1.6875 -2.421875 -2.65625q-1.5625 -0.984375 -3.6875 -0.984375q-2.328125 0 -4.03125 1.15625q-1.6875 1.140625 -2.609375 2.984375q-0.90625 1.84375 -0.90625 3.9375l0 2.265625q0 2.875 1.0 4.875q1.0 2.0 2.78125 3.03125q1.796875 1.03125 4.171875 1.03125q1.546875 0 2.796875 -0.4375q1.25 -0.4375 2.15625 -1.328125q0.90625 -0.890625 1.40625 -2.203125l3.78125 1.0625q-0.59375 1.921875 -2.015625 3.375q-1.40625 1.4375 -3.484375 2.25q-2.0625 0.796875 -4.640625 0.796875zm16.499878 -0.53125l0 -25.453125l3.78125 0l0 3.84375l0.265625 0q0.6875 -1.890625 2.515625 -3.0625q1.828125 -1.171875 4.109375 -1.171875q0.421875 0 1.0625 0.015625q0.65625 0.015625 0.984375 0.046875l0 3.984375q-0.1875 -0.0625 -0.890625 -0.15625q-0.703125 -0.109375 -1.484375 -0.109375q-1.859375 0 -3.3125 0.765625q-1.453125 0.765625 -2.296875 2.125q-0.828125 1.34375 -0.828125 3.0625l0 16.109375l-3.90625 0z" fill-rule="nonzero"/><path fill="#000000" fill-opacity="0.0" d="m868.09973 735.68506l477.82678 0l0 75.93701l-477.82678 0z" fill-rule="evenodd"/><path fill="#000000" d="m899.7716 764.0319q-0.3125 -2.515625 -2.4375 -3.90625q-2.109375 -1.390625 -5.1875 -1.390625q-2.25 0 -3.9375 0.734375q-1.6875 0.71875 -2.625 2.0q-0.921875 1.28125 -0.921875 2.890625q0 1.359375 0.640625 2.34375q0.65625 0.96875 1.6875 1.609375q1.03125 0.625 2.15625 1.03125q1.125 0.40625 2.0625 0.65625l3.453125 0.921875q1.328125 0.359375 2.953125 0.96875q1.640625 0.609375 3.140625 1.671875q1.5 1.046875 2.46875 2.6875q0.984375 1.640625 0.984375 4.015625q0 2.75 -1.4375 4.984375q-1.4375 2.21875 -4.1875 3.53125q-2.734375 1.296875 -6.640625 1.296875q-3.640625 0 -6.3125 -1.171875q-2.65625 -1.171875 -4.171875 -3.28125q-1.515625 -2.109375 -1.703125 -4.890625l4.234375 0q0.171875 1.921875 1.296875 3.171875q1.140625 1.25 2.890625 1.859375q1.75 0.609375 3.765625 0.609375q2.359375 0 4.21875 -0.765625q1.875 -0.78125 2.96875 -2.15625q1.09375 -1.390625 1.09375 -3.25q0 -1.6875 -0.953125 -2.75q-0.9375 -1.0625 -2.484375 -1.71875q-1.53125 -0.671875 -3.3125 -1.15625l-4.1875 -1.203125q-3.96875 -1.140625 -6.296875 -3.25q-2.3125 -2.125 -2.3125 -5.5625q0 -2.84375 1.546875 -4.96875q1.546875 -2.140625 4.171875 -3.3125q2.625 -1.1875 5.875 -1.1875q3.28125 0 5.828125 1.171875q2.5625 1.15625 4.0625 3.1875q1.5 2.015625 1.578125 4.578125l-3.96875 0zm21.334595 25.984375q-3.671875 0 -6.34375 -1.625q-2.65625 -1.640625 -4.09375 -4.578125q-1.421875 -2.9375 -1.421875 -6.859375q0 -3.90625 1.421875 -6.890625q1.4375 -3.0 4.015625 -4.671875q2.578125 -1.6875 6.015625 -1.6875q2.0 0 3.9375 0.671875q1.9375 0.65625 3.515625 2.140625q1.59375 1.484375 2.53125 3.921875q0.953125 2.421875 0.953125 5.984375l0 1.65625l-19.609375 0l0 -3.375l15.640625 0q0 -2.15625 -0.859375 -3.84375q-0.84375 -1.6875 -2.421875 -2.65625q-1.5625 -0.984375 -3.6875 -0.984375q-2.328125 0 -4.03125 1.15625q-1.6875 1.140625 -2.609375 2.984375q-0.90625 1.84375 -0.90625 3.9375l0 2.265625q0 2.875 1.0 4.875q1.0 2.0 2.78125 3.03125q1.796875 1.03125 4.171875 1.03125q1.546875 0 2.796875 -0.4375q1.25 -0.4375 2.15625 -1.328125q0.90625 -0.890625 1.40625 -2.203125l3.78125 1.0625q-0.59375 1.921875 -2.015625 3.375q-1.40625 1.4375 -3.484375 2.25q-2.0625 0.796875 -4.640625 0.796875zm16.499939 -0.53125l0 -25.453125l3.78125 0l0 3.984375l0.328125 0q0.796875 -2.046875 2.5625 -3.171875q1.78125 -1.140625 4.265625 -1.140625q2.515625 0 4.1875 1.140625q1.6875 1.125 2.640625 3.171875l0.265625 0q0.96875 -1.96875 2.921875 -3.140625q1.96875 -1.171875 4.6875 -1.171875q3.421875 0 5.59375 2.140625q2.171875 2.125 2.171875 6.609375l0 17.03125l-3.921875 0l0 -17.03125q0 -2.8125 -1.546875 -4.015625q-1.53125 -1.21875 -3.609375 -1.21875q-2.6875 0 -4.171875 1.625q-1.46875 1.609375 -1.46875 4.078125l0 16.5625l-3.96875 0l0 -17.4375q0 -2.15625 -1.421875 -3.484375q-1.40625 -1.34375 -3.625 -1.34375q-1.515625 0 -2.84375 0.8125q-1.3125 0.8125 -2.125 2.25q-0.796875 1.421875 -0.796875 3.296875l0 15.90625l-3.90625 0zm40.5589 0l0 -25.453125l3.90625 0l0 25.453125l-3.90625 0zm1.984375 -29.6875q-1.140625 0 -1.96875 -0.78125q-0.8125 -0.78125 -0.8125 -1.875q0 -1.09375 0.8125 -1.859375q0.828125 -0.78125 1.96875 -0.78125q1.140625 0 1.953125 0.78125q0.828125 0.765625 0.828125 1.859375q0 1.09375 -0.828125 1.875q-0.8125 0.78125 -1.953125 0.78125zm22.73645 29.6875l0 -33.9375l20.34375 0l0 3.65625l-16.234375 0l0 11.453125l14.71875 0l0 3.65625l-14.71875 0l0 15.171875l-4.109375 0zm26.839355 0l0 -25.453125l3.90625 0l0 25.453125l-3.90625 0zm1.984375 -29.6875q-1.140625 0 -1.96875 -0.78125q-0.8125 -0.78125 -0.8125 -1.875q0 -1.09375 0.8125 -1.859375q0.828125 -0.78125 1.96875 -0.78125q1.140625 0 1.953125 0.78125q0.828125 0.765625 0.828125 1.859375q0 1.09375 -0.828125 1.875q-0.8125 0.78125 -1.953125 0.78125zm12.989502 14.375l0 15.3125l-3.90625 0l0 -25.453125l3.78125 0l0 3.984375l0.328125 0q0.890625 -1.9375 2.71875 -3.125q1.828125 -1.1875 4.703125 -1.1875q2.578125 0 4.515625 1.0625q1.953125 1.046875 3.015625 3.171875q1.078125 2.125 1.078125 5.375l0 16.171875l-3.90625 0l0 -15.90625q0 -3.0 -1.5625 -4.671875q-1.546875 -1.6875 -4.265625 -1.6875q-1.875 0 -3.34375 0.8125q-1.46875 0.8125 -2.3125 2.375q-0.84375 1.546875 -0.84375 3.765625zm30.882446 15.90625q-2.40625 0 -4.390625 -0.921875q-1.96875 -0.921875 -3.125 -2.65625q-1.15625 -1.75 -1.15625 -4.234375q0 -2.1875 0.859375 -3.546875q0.859375 -1.375 2.296875 -2.15625q1.4375 -0.78125 3.1875 -1.171875q1.75 -0.390625 3.53125 -0.625q2.3125 -0.296875 3.765625 -0.453125q1.453125 -0.15625 2.125 -0.53125q0.671875 -0.390625 0.671875 -1.328125l0 -0.140625q0 -2.4375 -1.34375 -3.796875q-1.328125 -1.359375 -4.03125 -1.359375q-2.796875 0 -4.390625 1.234375q-1.59375 1.21875 -2.234375 2.609375l-3.71875 -1.328125q1.0 -2.328125 2.65625 -3.625q1.671875 -1.296875 3.65625 -1.8125q1.984375 -0.53125 3.90625 -0.53125q1.21875 0 2.8125 0.296875q1.609375 0.28125 3.109375 1.1875q1.5 0.890625 2.484375 2.703125q1.0 1.796875 1.0 4.828125l0 16.765625l-3.90625 0l0 -3.453125l-0.203125 0q-0.40625 0.828125 -1.328125 1.78125q-0.921875 0.9375 -2.46875 1.609375q-1.546875 0.65625 -3.765625 0.65625zm0.59375 -3.515625q2.328125 0 3.921875 -0.90625q1.609375 -0.90625 2.421875 -2.34375q0.828125 -1.453125 0.828125 -3.046875l0 -3.578125q-0.25 0.296875 -1.09375 0.546875q-0.828125 0.234375 -1.921875 0.421875q-1.078125 0.171875 -2.109375 0.296875q-1.015625 0.109375 -1.640625 0.203125q-1.53125 0.1875 -2.84375 0.640625q-1.3125 0.4375 -2.125 1.3125q-0.796875 0.859375 -0.796875 2.34375q0 2.046875 1.515625 3.078125q1.515625 1.03125 3.84375 1.03125zm22.138428 -31.015625l0 33.9375l-3.90625 0l0 -33.9375l3.90625 0zm25.192505 14.1875l-3.515625 1.0q-0.328125 -0.890625 -0.96875 -1.71875q-0.640625 -0.84375 -1.734375 -1.390625q-1.09375 -0.546875 -2.796875 -0.546875q-2.34375 0 -3.890625 1.078125q-1.546875 1.0625 -1.546875 2.703125q0 1.453125 1.0625 2.3125q1.0625 0.84375 3.3125 1.40625l3.78125 0.921875q3.40625 0.828125 5.078125 2.53125q1.671875 1.6875 1.671875 4.359375q0 2.1875 -1.25 3.921875q-1.25 1.71875 -3.484375 2.71875q-2.234375 0.984375 -5.203125 0.984375q-3.890625 0 -6.453125 -1.6875q-2.546875 -1.6875 -3.21875 -4.9375l3.703125 -0.9375q0.53125 2.0625 2.015625 3.09375q1.484375 1.015625 3.890625 1.015625q2.734375 0 4.34375 -1.15625q1.625 -1.171875 1.625 -2.8125q0 -1.328125 -0.9375 -2.234375q-0.921875 -0.90625 -2.84375 -1.34375l-4.25 -1.0q-3.484375 -0.828125 -5.125 -2.578125q-1.625 -1.75 -1.625 -4.375q0 -2.15625 1.21875 -3.8125q1.21875 -1.65625 3.328125 -2.59375q2.109375 -0.953125 4.796875 -0.953125q3.78125 0 5.9375 1.65625q2.15625 1.65625 3.078125 4.375z" fill-rule="nonzero"/><path fill="#000000" fill-opacity="0.0" d="m596.7979 1038.9868l477.82672 0l0 75.93701l-477.82672 0z" fill-rule="evenodd"/><path fill="#000000" d="m622.2354 1082.1775l4.5 0l3.78125 4.96875l1.0 1.328125l5.625 7.5l-4.5 0l-3.71875 -4.984375l-0.921875 -1.25l-5.765625 -7.5625zm16.296875 -6.359375q0 5.375 -1.9375 9.28125q-1.9375 3.90625 -5.3125 6.03125q-3.375 2.125 -7.71875 2.125q-4.34375 0 -7.734375 -2.125q-3.375 -2.125 -5.3125 -6.03125q-1.9375 -3.90625 -1.9375 -9.28125q0 -5.359375 1.9375 -9.265625q1.9375 -3.921875 5.3125 -6.03125q3.390625 -2.125 7.734375 -2.125q4.34375 0 7.71875 2.125q3.375 2.109375 5.3125 6.03125q1.9375 3.90625 1.9375 9.265625zm-3.96875 0q0 -4.40625 -1.46875 -7.4375q-1.46875 -3.03125 -3.96875 -4.578125q-2.484375 -1.5625 -5.5625 -1.5625q-3.09375 0 -5.59375 1.5625q-2.484375 1.546875 -3.953125 4.578125q-1.453125 3.03125 -1.453125 7.4375q0 4.40625 1.453125 7.4375q1.46875 3.03125 3.953125 4.59375q2.5 1.5625 5.59375 1.5625q3.078125 0 5.5625 -1.5625q2.5 -1.5625 3.96875 -4.59375q1.46875 -3.03125 1.46875 -7.4375zm26.365906 6.5625l0 -15.046875l3.921875 0l0 25.453125l-3.921875 0l0 -4.3125l-0.25 0q-0.90625 1.9375 -2.796875 3.296875q-1.890625 1.34375 -4.765625 1.34375q-2.390625 0 -4.25 -1.046875q-1.84375 -1.046875 -2.90625 -3.171875q-1.0625 -2.140625 -1.0625 -5.390625l0 -16.171875l3.90625 0l0 15.90625q0 2.78125 1.5625 4.4375q1.578125 1.65625 4.015625 1.65625q1.453125 0 2.96875 -0.734375q1.515625 -0.75 2.546875 -2.28125q1.03125 -1.546875 1.03125 -3.9375zm18.558716 11.0q-2.40625 0 -4.390625 -0.921875q-1.96875 -0.921875 -3.125 -2.65625q-1.15625 -1.75 -1.15625 -4.234375q0 -2.1875 0.859375 -3.546875q0.859375 -1.375 2.296875 -2.15625q1.4375 -0.78125 3.1875 -1.171875q1.75 -0.390625 3.53125 -0.625q2.3125 -0.296875 3.765625 -0.453125q1.453125 -0.15625 2.125 -0.53125q0.671875 -0.390625 0.671875 -1.328125l0 -0.140625q0 -2.4375 -1.34375 -3.796875q-1.328125 -1.359375 -4.03125 -1.359375q-2.796875 0 -4.390625 1.234375q-1.59375 1.21875 -2.234375 2.609375l-3.71875 -1.328125q1.0 -2.328125 2.65625 -3.625q1.671875 -1.296875 3.65625 -1.8125q1.984375 -0.53125 3.90625 -0.53125q1.21875 0 2.8125 0.296875q1.609375 0.28125 3.109375 1.1875q1.5 0.890625 2.484375 2.703125q1.0 1.796875 1.0 4.828125l0 16.765625l-3.90625 0l0 -3.453125l-0.203125 0q-0.40625 0.828125 -1.328125 1.78125q-0.921875 0.9375 -2.46875 1.609375q-1.546875 0.65625 -3.765625 0.65625zm0.59375 -3.515625q2.328125 0 3.921875 -0.90625q1.609375 -0.90625 2.421875 -2.34375q0.828125 -1.453125 0.828125 -3.046875l0 -3.578125q-0.25 0.296875 -1.09375 0.546875q-0.828125 0.234375 -1.921875 0.421875q-1.078125 0.171875 -2.109375 0.296875q-1.015625 0.109375 -1.640625 0.203125q-1.53125 0.1875 -2.84375 0.640625q-1.3125 0.4375 -2.125 1.3125q-0.796875 0.859375 -0.796875 2.34375q0 2.046875 1.515625 3.078125q1.515625 1.03125 3.84375 1.03125zm18.232117 2.921875l0 -25.453125l3.78125 0l0 3.84375l0.265625 0q0.6875 -1.890625 2.515625 -3.0625q1.828125 -1.171875 4.109375 -1.171875q0.421875 0 1.0625 0.015625q0.65625 0.015625 0.984375 0.046875l0 3.984375q-0.1875 -0.0625 -0.890625 -0.15625q-0.703125 -0.109375 -1.484375 -0.109375q-1.859375 0 -3.3125 0.765625q-1.453125 0.765625 -2.296875 2.125q-0.828125 1.34375 -0.828125 3.0625l0 16.109375l-3.90625 0zm30.016907 -25.453125l0 3.3125l-13.1875 0l0 -3.3125l13.1875 0zm-9.34375 -6.09375l3.921875 0l0 24.25q0 1.65625 0.484375 2.484375q0.484375 0.8125 1.25 1.09375q0.78125 0.265625 1.640625 0.265625q0.640625 0 1.046875 -0.0625q0.421875 -0.078125 0.671875 -0.125l0.796875 3.515625q-0.390625 0.140625 -1.109375 0.296875q-0.71875 0.15625 -1.8125 0.15625q-1.65625 0 -3.234375 -0.703125q-1.578125 -0.71875 -2.625 -2.171875q-1.03125 -1.46875 -1.03125 -3.6875l0 -25.3125zm25.653748 32.078125q-3.671875 0 -6.34375 -1.625q-2.65625 -1.640625 -4.09375 -4.578125q-1.421875 -2.9375 -1.421875 -6.859375q0 -3.90625 1.421875 -6.890625q1.4375 -3.0 4.015625 -4.671875q2.578125 -1.6875 6.015625 -1.6875q2.0 0 3.9375 0.671875q1.9375 0.65625 3.515625 2.140625q1.59375 1.484375 2.53125 3.921875q0.953125 2.421875 0.953125 5.984375l0 1.65625l-19.609375 0l0 -3.375l15.640625 0q0 -2.15625 -0.859375 -3.84375q-0.84375 -1.6875 -2.421875 -2.65625q-1.5625 -0.984375 -3.6875 -0.984375q-2.328125 0 -4.03125 1.15625q-1.6875 1.140625 -2.609375 2.984375q-0.90625 1.84375 -0.90625 3.9375l0 2.265625q0 2.875 1.0 4.875q1.0 2.0 2.78125 3.03125q1.796875 1.03125 4.171875 1.03125q1.546875 0 2.796875 -0.4375q1.25 -0.4375 2.15625 -1.328125q0.90625 -0.890625 1.40625 -2.203125l3.78125 1.0625q-0.59375 1.921875 -2.015625 3.375q-1.40625 1.4375 -3.484375 2.25q-2.0625 0.796875 -4.640625 0.796875zm16.5 -0.53125l0 -25.453125l3.78125 0l0 3.84375l0.265625 0q0.6875 -1.890625 2.515625 -3.0625q1.828125 -1.171875 4.109375 -1.171875q0.421875 0 1.0625 0.015625q0.65625 0.015625 0.984375 0.046875l0 3.984375q-0.1875 -0.0625 -0.890625 -0.15625q-0.703125 -0.109375 -1.484375 -0.109375q-1.859375 0 -3.3125 0.765625q-1.453125 0.765625 -2.296875 2.125q-0.828125 1.34375 -0.828125 3.0625l0 16.109375l-3.90625 0zm31.016724 0l0 -33.9375l20.34375 0l0 3.65625l-16.234375 0l0 11.453125l14.71875 0l0 3.65625l-14.71875 0l0 15.171875l-4.109375 0zm26.839355 0l0 -25.453125l3.90625 0l0 25.453125l-3.90625 0zm1.984375 -29.6875q-1.140625 0 -1.96875 -0.78125q-0.8125 -0.78125 -0.8125 -1.875q0 -1.09375 0.8125 -1.859375q0.828125 -0.78125 1.96875 -0.78125q1.140625 0 1.953125 0.78125q0.828125 0.765625 0.828125 1.859375q0 1.09375 -0.828125 1.875q-0.8125 0.78125 -1.953125 0.78125zm12.989441 14.375l0 15.3125l-3.90625 0l0 -25.453125l3.78125 0l0 3.984375l0.328125 0q0.890625 -1.9375 2.71875 -3.125q1.828125 -1.1875 4.703125 -1.1875q2.578125 0 4.515625 1.0625q1.953125 1.046875 3.015625 3.171875q1.078125 2.125 1.078125 5.375l0 16.171875l-3.90625 0l0 -15.90625q0 -3.0 -1.5625 -4.671875q-1.546875 -1.6875 -4.265625 -1.6875q-1.875 0 -3.34375 0.8125q-1.46875 0.8125 -2.3125 2.375q-0.84375 1.546875 -0.84375 3.765625zm30.882507 15.90625q-2.40625 0 -4.390625 -0.921875q-1.96875 -0.921875 -3.125 -2.65625q-1.15625 -1.75 -1.15625 -4.234375q0 -2.1875 0.859375 -3.546875q0.859375 -1.375 2.296875 -2.15625q1.4375 -0.78125 3.1875 -1.171875q1.75 -0.390625 3.53125 -0.625q2.3125 -0.296875 3.765625 -0.453125q1.453125 -0.15625 2.125 -0.53125q0.671875 -0.390625 0.671875 -1.328125l0 -0.140625q0 -2.4375 -1.34375 -3.796875q-1.328125 -1.359375 -4.03125 -1.359375q-2.796875 0 -4.390625 1.234375q-1.59375 1.21875 -2.234375 2.609375l-3.71875 -1.328125q1.0 -2.328125 2.65625 -3.625q1.671875 -1.296875 3.65625 -1.8125q1.984375 -0.53125 3.90625 -0.53125q1.21875 0 2.8125 0.296875q1.609375 0.28125 3.109375 1.1875q1.5 0.890625 2.484375 2.703125q1.0 1.796875 1.0 4.828125l0 16.765625l-3.90625 0l0 -3.453125l-0.203125 0q-0.40625 0.828125 -1.328125 1.78125q-0.921875 0.9375 -2.46875 1.609375q-1.546875 0.65625 -3.765625 0.65625zm0.59375 -3.515625q2.328125 0 3.921875 -0.90625q1.609375 -0.90625 2.421875 -2.34375q0.828125 -1.453125 0.828125 -3.046875l0 -3.578125q-0.25 0.296875 -1.09375 0.546875q-0.828125 0.234375 -1.921875 0.421875q-1.078125 0.171875 -2.109375 0.296875q-1.015625 0.109375 -1.640625 0.203125q-1.53125 0.1875 -2.84375 0.640625q-1.3125 0.4375 -2.125 1.3125q-0.796875 0.859375 -0.796875 2.34375q0 2.046875 1.515625 3.078125q1.515625 1.03125 3.84375 1.03125zm22.138367 -31.015625l0 33.9375l-3.90625 0l0 -33.9375l3.90625 0zm25.192566 14.1875l-3.515625 1.0q-0.328125 -0.890625 -0.96875 -1.71875q-0.640625 -0.84375 -1.734375 -1.390625q-1.09375 -0.546875 -2.796875 -0.546875q-2.34375 0 -3.890625 1.078125q-1.546875 1.0625 -1.546875 2.703125q0 1.453125 1.0625 2.3125q1.0625 0.84375 3.3125 1.40625l3.78125 0.921875q3.40625 0.828125 5.078125 2.53125q1.671875 1.6875 1.671875 4.359375q0 2.1875 -1.25 3.921875q-1.25 1.71875 -3.484375 2.71875q-2.234375 0.984375 -5.203125 0.984375q-3.890625 0 -6.453125 -1.6875q-2.546875 -1.6875 -3.21875 -4.9375l3.703125 -0.9375q0.53125 2.0625 2.015625 3.09375q1.484375 1.015625 3.890625 1.015625q2.734375 0 4.34375 -1.15625q1.625 -1.171875 1.625 -2.8125q0 -1.328125 -0.9375 -2.234375q-0.921875 -0.90625 -2.84375 -1.34375l-4.25 -1.0q-3.484375 -0.828125 -5.125 -2.578125q-1.625 -1.75 -1.625 -4.375q0 -2.15625 1.21875 -3.8125q1.21875 -1.65625 3.328125 -2.59375q2.109375 -0.953125 4.796875 -0.953125q3.78125 0 5.9375 1.65625q2.15625 1.65625 3.078125 4.375z" fill-rule="nonzero"/><path fill="#000000" fill-opacity="0.0" d="m514.0761 1452.4751l477.82678 0l0 75.93701l-477.82678 0z" fill-rule="evenodd"/><path fill="#000000" d="m527.1855 1506.275l0 -33.9375l4.109375 0l0 30.296875l15.765625 0l0 3.640625l-19.875 0zm33.197144 0.59375q-2.40625 0 -4.390625 -0.921875q-1.96875 -0.921875 -3.125 -2.65625q-1.15625 -1.75 -1.15625 -4.234375q0 -2.1875 0.859375 -3.546875q0.859375 -1.375 2.296875 -2.15625q1.4375 -0.78125 3.1875 -1.171875q1.75 -0.390625 3.53125 -0.625q2.3125 -0.296875 3.765625 -0.453125q1.453125 -0.15625 2.125 -0.53125q0.671875 -0.390625 0.671875 -1.328125l0 -0.140625q0 -2.4375 -1.34375 -3.796875q-1.328125 -1.359375 -4.03125 -1.359375q-2.796875 0 -4.390625 1.234375q-1.59375 1.21875 -2.234375 2.609375l-3.71875 -1.328125q1.0 -2.328125 2.65625 -3.625q1.671875 -1.296875 3.65625 -1.8125q1.984375 -0.53125 3.90625 -0.53125q1.21875 0 2.8125 0.296875q1.609375 0.28125 3.109375 1.1875q1.5 0.890625 2.484375 2.703125q1.0 1.796875 1.0 4.828125l0 16.765625l-3.90625 0l0 -3.453125l-0.203125 0q-0.40625 0.828125 -1.328125 1.78125q-0.921875 0.9375 -2.46875 1.609375q-1.546875 0.65625 -3.765625 0.65625zm0.59375 -3.515625q2.328125 0 3.921875 -0.90625q1.609375 -0.90625 2.421875 -2.34375q0.828125 -1.453125 0.828125 -3.046875l0 -3.578125q-0.25 0.296875 -1.09375 0.546875q-0.828125 0.234375 -1.921875 0.421875q-1.078125 0.171875 -2.109375 0.296875q-1.015625 0.109375 -1.640625 0.203125q-1.53125 0.1875 -2.84375 0.640625q-1.3125 0.4375 -2.125 1.3125q-0.796875 0.859375 -0.796875 2.34375q0 2.046875 1.515625 3.078125q1.515625 1.03125 3.84375 1.03125zm36.263367 -16.828125l-3.515625 1.0q-0.328125 -0.890625 -0.96875 -1.71875q-0.640625 -0.84375 -1.734375 -1.390625q-1.09375 -0.546875 -2.796875 -0.546875q-2.34375 0 -3.890625 1.078125q-1.546875 1.0625 -1.546875 2.703125q0 1.453125 1.0625 2.3125q1.0625 0.84375 3.3125 1.40625l3.78125 0.921875q3.40625 0.828125 5.078125 2.53125q1.671875 1.6875 1.671875 4.359375q0 2.1875 -1.25 3.921875q-1.25 1.71875 -3.484375 2.71875q-2.234375 0.984375 -5.203125 0.984375q-3.890625 0 -6.453125 -1.6875q-2.546875 -1.6875 -3.21875 -4.9375l3.703125 -0.9375q0.53125 2.0625 2.015625 3.09375q1.484375 1.015625 3.890625 1.015625q2.734375 0 4.34375 -1.15625q1.625 -1.171875 1.625 -2.8125q0 -1.328125 -0.9375 -2.234375q-0.921875 -0.90625 -2.84375 -1.34375l-4.25 -1.0q-3.484375 -0.828125 -5.125 -2.578125q-1.625 -1.75 -1.625 -4.375q0 -2.15625 1.21875 -3.8125q1.21875 -1.65625 3.328125 -2.59375q2.109375 -0.953125 4.796875 -0.953125q3.78125 0 5.9375 1.65625q2.15625 1.65625 3.078125 4.375zm17.419617 -5.703125l0 3.3125l-13.1875 0l0 -3.3125l13.1875 0zm-9.34375 -6.09375l3.921875 0l0 24.25q0 1.65625 0.484375 2.484375q0.484375 0.8125 1.25 1.09375q0.78125 0.265625 1.640625 0.265625q0.640625 0 1.046875 -0.0625q0.421875 -0.078125 0.671875 -0.125l0.796875 3.515625q-0.390625 0.140625 -1.109375 0.296875q-0.71875 0.15625 -1.8125 0.15625q-1.65625 0 -3.234375 -0.703125q-1.578125 -0.71875 -2.625 -2.171875q-1.03125 -1.46875 -1.03125 -3.6875l0 -25.3125zm40.228455 -2.390625l0 33.9375l-4.109375 0l0 -29.625l-0.1875 0l-8.296875 5.5l0 -4.171875l8.484375 -5.640625l4.109375 0zm21.014954 34.40625q-2.09375 -0.03125 -4.1875 -0.796875q-2.078125 -0.765625 -3.8125 -2.578125q-1.71875 -1.8125 -2.765625 -4.921875q-1.03125 -3.109375 -1.03125 -7.8125q0 -4.5 0.84375 -7.984375q0.84375 -3.5 2.453125 -5.890625q1.609375 -2.390625 3.875 -3.625q2.28125 -1.25 5.15625 -1.25q2.84375 0 5.0625 1.140625q2.234375 1.125 3.640625 3.15625q1.421875 2.015625 1.828125 4.640625l-4.046875 0q-0.5625 -2.28125 -2.1875 -3.78125q-1.609375 -1.515625 -4.296875 -1.515625q-3.953125 0 -6.21875 3.4375q-2.25 3.421875 -2.265625 9.625l0.265625 0q0.921875 -1.421875 2.203125 -2.421875q1.296875 -1.0 2.84375 -1.546875q1.5625 -0.546875 3.296875 -0.546875q2.921875 0 5.34375 1.453125q2.421875 1.453125 3.875 4.0q1.453125 2.53125 1.453125 5.8125q0 3.15625 -1.40625 5.765625q-1.40625 2.609375 -3.953125 4.140625q-2.546875 1.53125 -5.96875 1.5zm0 -3.65625q2.078125 0 3.75 -1.03125q1.671875 -1.046875 2.640625 -2.796875q0.96875 -1.765625 0.96875 -3.921875q0 -2.109375 -0.9375 -3.828125q-0.9375 -1.734375 -2.578125 -2.765625q-1.625 -1.03125 -3.71875 -1.03125q-1.5625 0 -2.921875 0.625q-1.359375 0.625 -2.390625 1.703125q-1.015625 1.078125 -1.59375 2.46875q-0.578125 1.375 -0.578125 2.890625q0 2.03125 0.953125 3.796875q0.953125 1.75 2.609375 2.828125q1.671875 1.0625 3.796875 1.0625z" fill-rule="nonzero"/><path fill="#000000" fill-opacity="0.0" d="m306.8058 1735.4384l477.82678 0l0 75.93701l-477.82678 0z" fill-rule="evenodd"/><path fill="#000000" d="m319.91516 1789.2383l0 -33.9375l20.34375 0l0 3.65625l-16.234375 0l0 11.453125l14.71875 0l0 3.65625l-14.71875 0l0 15.171875l-4.109375 0zm35.327057 0.53125q-3.453125 0 -6.046875 -1.640625q-2.59375 -1.640625 -4.046875 -4.59375q-1.4375 -2.953125 -1.4375 -6.890625q0 -3.96875 1.4375 -6.9375q1.453125 -2.96875 4.046875 -4.609375q2.59375 -1.640625 6.046875 -1.640625q3.4375 0 6.03125 1.640625q2.59375 1.640625 4.046875 4.609375q1.453125 2.96875 1.453125 6.9375q0 3.9375 -1.453125 6.890625q-1.453125 2.953125 -4.046875 4.59375q-2.59375 1.640625 -6.03125 1.640625zm0 -3.515625q2.609375 0 4.296875 -1.34375q1.703125 -1.34375 2.5 -3.53125q0.8125 -2.1875 0.8125 -4.734375q0 -2.546875 -0.8125 -4.75q-0.796875 -2.203125 -2.5 -3.5625q-1.6875 -1.359375 -4.296875 -1.359375q-2.625 0 -4.3125 1.359375q-1.6875 1.359375 -2.5 3.5625q-0.8125 2.203125 -0.8125 4.75q0 2.546875 0.8125 4.734375q0.8125 2.1875 2.5 3.53125q1.6875 1.34375 4.3125 1.34375zm17.490814 2.984375l0 -25.453125l3.78125 0l0 3.84375l0.265625 0q0.6875 -1.890625 2.515625 -3.0625q1.828125 -1.171875 4.109375 -1.171875q0.421875 0 1.0625 0.015625q0.65625 0.015625 0.984375 0.046875l0 3.984375q-0.1875 -0.0625 -0.890625 -0.15625q-0.703125 -0.109375 -1.484375 -0.109375q-1.859375 0 -3.3125 0.765625q-1.453125 0.765625 -2.296875 2.125q-0.828125 1.34375 -0.828125 3.0625l0 16.109375l-3.90625 0zm54.204224 -23.328125q-0.546875 -1.671875 -1.4375 -3.0q-0.875 -1.34375 -2.09375 -2.28125q-1.21875 -0.953125 -2.765625 -1.4375q-1.53125 -0.5 -3.375 -0.5q-3.015625 0 -5.484375 1.5625q-2.46875 1.546875 -3.921875 4.578125q-1.453125 3.03125 -1.453125 7.4375q0 4.40625 1.46875 7.4375q1.46875 3.03125 3.984375 4.59375q2.53125 1.5625 5.671875 1.5625q2.921875 0 5.140625 -1.25q2.234375 -1.25 3.484375 -3.546875q1.25 -2.296875 1.25 -5.40625l1.265625 0.25l-10.203125 0l0 -3.640625l12.921875 0l0 3.640625q0 4.203125 -1.78125 7.296875q-1.78125 3.09375 -4.90625 4.796875q-3.125 1.703125 -7.171875 1.703125q-4.5 0 -7.90625 -2.125q-3.40625 -2.125 -5.3125 -6.03125q-1.890625 -3.90625 -1.890625 -9.28125q0 -4.015625 1.078125 -7.234375q1.09375 -3.234375 3.078125 -5.5q2.0 -2.28125 4.703125 -3.484375q2.71875 -1.203125 5.984375 -1.203125q2.6875 0 5.015625 0.8125q2.328125 0.796875 4.15625 2.265625q1.828125 1.453125 3.046875 3.484375q1.234375 2.03125 1.703125 4.5l-4.25 0zm10.941895 23.328125l0 -25.453125l3.78125 0l0 3.84375l0.265625 0q0.6875 -1.890625 2.515625 -3.0625q1.828125 -1.171875 4.109375 -1.171875q0.421875 0 1.0625 0.015625q0.65625 0.015625 0.984375 0.046875l0 3.984375q-0.1875 -0.0625 -0.890625 -0.15625q-0.703125 -0.109375 -1.484375 -0.109375q-1.859375 0 -3.3125 0.765625q-1.453125 0.765625 -2.296875 2.125q-0.828125 1.34375 -0.828125 3.0625l0 16.109375l-3.90625 0zm26.911743 0.53125q-3.453125 0 -6.046875 -1.640625q-2.59375 -1.640625 -4.046875 -4.59375q-1.4375 -2.953125 -1.4375 -6.890625q0 -3.96875 1.4375 -6.9375q1.453125 -2.96875 4.046875 -4.609375q2.59375 -1.640625 6.046875 -1.640625q3.4375 0 6.03125 1.640625q2.59375 1.640625 4.046875 4.609375q1.453125 2.96875 1.453125 6.9375q0 3.9375 -1.453125 6.890625q-1.453125 2.953125 -4.046875 4.59375q-2.59375 1.640625 -6.03125 1.640625zm0 -3.515625q2.609375 0 4.296875 -1.34375q1.703125 -1.34375 2.5 -3.53125q0.8125 -2.1875 0.8125 -4.734375q0 -2.546875 -0.8125 -4.75q-0.796875 -2.203125 -2.5 -3.5625q-1.6875 -1.359375 -4.296875 -1.359375q-2.625 0 -4.3125 1.359375q-1.6875 1.359375 -2.5 3.5625q-0.8125 2.203125 -0.8125 4.75q0 2.546875 0.8125 4.734375q0.8125 2.1875 2.5 3.53125q1.6875 1.34375 4.3125 1.34375zm33.522064 -7.421875l0 -15.046875l3.921875 0l0 25.453125l-3.921875 0l0 -4.3125l-0.25 0q-0.90625 1.9375 -2.796875 3.296875q-1.890625 1.34375 -4.765625 1.34375q-2.390625 0 -4.25 -1.046875q-1.84375 -1.046875 -2.90625 -3.171875q-1.0625 -2.140625 -1.0625 -5.390625l0 -16.171875l3.90625 0l0 15.90625q0 2.78125 1.5625 4.4375q1.578125 1.65625 4.015625 1.65625q1.453125 0 2.96875 -0.734375q1.515625 -0.75 2.546875 -2.28125q1.03125 -1.546875 1.03125 -3.9375zm11.07428 19.953125l0 -35.0l3.7812805 0l0 4.046875l0.453125 0q0.4375 -0.65625 1.203125 -1.6875q0.78125 -1.046875 2.21875 -1.859375q1.453125 -0.828125 3.9375 -0.828125q3.21875 0 5.671875 1.609375q2.453125 1.609375 3.828125 4.5625q1.375 2.9375 1.375 6.953125q0 4.046875 -1.375 7.0q-1.375 2.953125 -3.8125 4.578125q-2.4375 1.609375 -5.609375 1.609375q-2.453125 0 -3.9375 -0.8125q-1.46875 -0.828125 -2.265625 -1.875q-0.796875 -1.0625 -1.234375 -1.75l-0.328125 0l0 13.453125l-3.9062805 0zm3.8437805 -22.265625q0 2.875 0.84375 5.078125q0.84375 2.1875 2.46875 3.421875q1.625 1.234375 3.984375 1.234375q2.453125 0 4.09375 -1.296875q1.65625 -1.296875 2.484375 -3.5q0.84375 -2.21875 0.84375 -4.9375q0 -2.6875 -0.828125 -4.84375q-0.8125 -2.171875 -2.46875 -3.4375q-1.640625 -1.265625 -4.125 -1.265625q-2.390625 0 -4.015625 1.203125q-1.625 1.203125 -2.453125 3.34375q-0.828125 2.140625 -0.828125 5.0zm42.61847 -7.03125l-3.515625 1.0q-0.328125 -0.890625 -0.96875 -1.71875q-0.640625 -0.84375 -1.734375 -1.390625q-1.09375 -0.546875 -2.796875 -0.546875q-2.34375 0 -3.890625 1.078125q-1.546875 1.0625 -1.546875 2.703125q0 1.453125 1.0625 2.3125q1.0625 0.84375 3.3125 1.40625l3.78125 0.921875q3.40625 0.828125 5.078125 2.53125q1.671875 1.6875 1.671875 4.359375q0 2.1875 -1.25 3.921875q-1.25 1.71875 -3.484375 2.71875q-2.234375 0.984375 -5.203125 0.984375q-3.890625 0 -6.453125 -1.6875q-2.546875 -1.6875 -3.21875 -4.9375l3.703125 -0.9375q0.53125 2.0625 2.015625 3.09375q1.484375 1.015625 3.890625 1.015625q2.734375 0 4.34375 -1.15625q1.625 -1.171875 1.625 -2.8125q0 -1.328125 -0.9375 -2.234375q-0.921875 -0.90625 -2.84375 -1.34375l-4.25 -1.0q-3.484375 -0.828125 -5.125 -2.578125q-1.625 -1.75 -1.625 -4.375q0 -2.15625 1.21875 -3.8125q1.21875 -1.65625 3.328125 -2.59375q2.109375 -0.953125 4.796875 -0.953125q3.78125 0 5.9375 1.65625q2.15625 1.65625 3.078125 4.375z" fill-rule="nonzero"/><path fill="#000000" fill-opacity="0.0" d="m329.46194 1452.4751l153.13385 0l0 75.93701l-153.13385 0z" fill-rule="evenodd"/><path fill="#000000" d="m376.5783 1472.3375l0 33.9375l-4.109375 0l0 -29.625l-0.1875 0l-8.296875 5.5l0 -4.171875l8.484375 -5.640625l4.109375 0z" fill-rule="nonzero"/><path fill="#000000" d="m388.49948 1506.5094q-1.078125 0 -1.859375 -0.78125q-0.78125 -0.78125 -0.78125 -1.859375q0 -1.09375 0.78125 -1.859375q0.78125 -0.78125 1.859375 -0.78125q1.09375 0 1.875 0.78125q0.78125 0.765625 0.78125 1.859375q0 0.71875 -0.375 1.328125q-0.359375 0.59375 -0.953125 0.953125q-0.59375 0.359375 -1.328125 0.359375z" fill-rule="nonzero"/><path fill="#000000" d="m396.31003 1506.275l0 -1.796875l6.71875 -7.34375q1.1875 -1.296875 1.953125 -2.25q0.765625 -0.96875 1.140625 -1.8125q0.375 -0.859375 0.375 -1.796875q0 -1.0625 -0.515625 -1.84375q-0.515625 -0.796875 -1.40625 -1.21875q-0.875 -0.4375 -1.984375 -0.4375q-1.171875 0 -2.046875 0.484375q-0.859375 0.484375 -1.34375 1.359375q-0.46875 0.859375 -0.46875 2.015625l-2.34375 0q0 -1.78125 0.828125 -3.125q0.828125 -1.359375 2.25 -2.109375q1.421875 -0.765625 3.203125 -0.765625q1.796875 0 3.171875 0.765625q1.390625 0.75 2.171875 2.03125q0.78125 1.28125 0.78125 2.84375q0 1.125 -0.40625 2.203125q-0.390625 1.0625 -1.390625 2.375q-0.984375 1.296875 -2.734375 3.1875l-4.578125 4.890625l0 0.15625l9.46875 0l0 2.1875l-12.84375 0zm23.302673 0.28125q-1.75 0 -3.15625 -0.6875q-1.390625 -0.703125 -2.234375 -1.921875q-0.84375 -1.21875 -0.9375 -2.765625l2.390625 0q0.140625 1.390625 1.25 2.296875q1.125 0.890625 2.6875 0.890625q1.25 0 2.234375 -0.578125q0.984375 -0.59375 1.546875 -1.625q0.5625 -1.03125 0.5625 -2.328125q0 -1.34375 -0.59375 -2.390625q-0.578125 -1.046875 -1.59375 -1.65625q-1.015625 -0.609375 -2.3125 -0.609375q-0.9375 -0.015625 -1.921875 0.28125q-0.984375 0.296875 -1.625 0.75l-2.296875 -0.28125l1.234375 -10.015625l10.578125 0l0 2.1875l-8.515625 0l-0.71875 6.0l0.125 0q0.625 -0.5 1.5625 -0.828125q0.953125 -0.328125 1.96875 -0.328125q1.875 0 3.34375 0.890625q1.46875 0.890625 2.296875 2.4375q0.84375 1.53125 0.84375 3.515625q0 1.953125 -0.875 3.484375q-0.859375 1.515625 -2.390625 2.40625q-1.515625 0.875 -3.453125 0.875zm21.038452 -4.09375l0 -1.078125q0 -1.109375 0.453125 -2.03125q0.46875 -0.9375 1.359375 -1.5q0.890625 -0.5625 2.171875 -0.5625q1.296875 0 2.171875 0.5625q0.875 0.5625 1.3125 1.5q0.453125 0.921875 0.453125 2.03125l0 1.078125q0 1.109375 -0.453125 2.046875q-0.453125 0.921875 -1.34375 1.484375q-0.875 0.5625 -2.140625 0.5625q-1.296875 0 -2.1875 -0.5625q-0.875 -0.5625 -1.34375 -1.484375q-0.453125 -0.9375 -0.453125 -2.046875zm2.03125 -1.078125l0 1.078125q0 0.921875 0.4375 1.65625q0.4375 0.71875 1.515625 0.71875q1.046875 0 1.46875 -0.71875q0.4375 -0.734375 0.4375 -1.65625l0 -1.078125q0 -0.921875 -0.421875 -1.65625q-0.40625 -0.734375 -1.484375 -0.734375q-1.046875 0 -1.5 0.734375q-0.453125 0.734375 -0.453125 1.65625zm-12.171875 -10.578125l0 -1.078125q0 -1.109375 0.453125 -2.03125q0.46875 -0.9375 1.359375 -1.5q0.890625 -0.5625 2.171875 -0.5625q1.28125 0 2.15625 0.5625q0.875 0.5625 1.328125 1.5q0.453125 0.921875 0.453125 2.03125l0 1.078125q0 1.109375 -0.453125 2.046875q-0.453125 0.921875 -1.34375 1.484375q-0.875 0.5625 -2.140625 0.5625q-1.296875 0 -2.1875 -0.5625q-0.875 -0.5625 -1.34375 -1.484375q-0.453125 -0.9375 -0.453125 -2.046875zm2.03125 -1.078125l0 1.078125q0 0.921875 0.4375 1.65625q0.4375 0.734375 1.515625 0.734375q1.046875 0 1.46875 -0.734375q0.4375 -0.734375 0.4375 -1.65625l0 -1.078125q0 -0.921875 -0.421875 -1.65625q-0.421875 -0.734375 -1.484375 -0.734375q-1.046875 0 -1.5 0.734375q-0.453125 0.734375 -0.453125 1.65625zm-1.265625 16.546875l14.0 -20.359375l2.265625 0l-14.0 20.359375l-2.265625 0z" fill-rule="nonzero"/><path fill="#000000" fill-opacity="0.0" d="m419.48557 1038.9868l153.13388 0l0 75.93701l-153.13388 0z" fill-rule="evenodd"/><path fill="#000000" d="m464.791 1093.2556q-3.28125 0 -5.84375 -1.125q-2.5625 -1.140625 -4.0625 -3.140625q-1.5 -2.015625 -1.625 -4.6875l4.171875 0q0.125 1.640625 1.109375 2.828125q1.0 1.1875 2.609375 1.828125q1.609375 0.640625 3.5625 0.640625q2.1875 0 3.875 -0.75q1.703125 -0.765625 2.65625 -2.125q0.96875 -1.359375 0.96875 -3.15625q0 -1.859375 -0.9375 -3.296875q-0.921875 -1.4375 -2.71875 -2.25q-1.78125 -0.8125 -4.375 -0.8125l-2.71875 0l0 -3.640625l2.71875 0q2.03125 0 3.5625 -0.71875q1.53125 -0.734375 2.390625 -2.0625q0.875 -1.328125 0.875 -3.125q0 -1.71875 -0.765625 -2.984375q-0.75 -1.28125 -2.140625 -1.984375q-1.375 -0.71875 -3.25 -0.71875q-1.765625 0 -3.3125 0.640625q-1.546875 0.625 -2.53125 1.828125q-0.96875 1.203125 -1.046875 2.890625l-3.984375 0q0.109375 -2.65625 1.609375 -4.671875q1.515625 -2.015625 3.953125 -3.140625q2.4375 -1.125 5.375 -1.125q3.15625 0 5.40625 1.265625q2.25 1.265625 3.453125 3.34375q1.21875 2.0625 1.21875 4.46875q0 2.859375 -1.5 4.890625q-1.5 2.015625 -4.078125 2.796875l0 0.265625q3.21875 0.53125 5.015625 2.734375q1.8125 2.1875 1.8125 5.40625q0 2.78125 -1.5 4.984375q-1.5 2.1875 -4.078125 3.453125q-2.578125 1.25 -5.875 1.25z" fill-rule="nonzero"/><path fill="#000000" d="m483.35617 1092.9431q-0.734375 0 -1.265625 -0.515625q-0.53125 -0.53125 -0.53125 -1.265625q0 -0.734375 0.53125 -1.265625q0.53125 -0.53125 1.265625 -0.53125q0.734375 0 1.25 0.53125q0.53125 0.53125 0.53125 1.265625q0 0.484375 -0.25 0.890625q-0.234375 0.40625 -0.640625 0.65625q-0.390625 0.234375 -0.890625 0.234375zm6.2088623 -0.15625l9.109375 -18.015625l0 -0.15625l-10.5 0l0 -2.1875l13.03125 0l0 2.296875l-9.0625 18.0625l-2.578125 0zm21.429077 0.28125q-1.75 0 -3.15625 -0.6875q-1.390625 -0.703125 -2.234375 -1.921875q-0.84375 -1.21875 -0.9375 -2.765625l2.390625 0q0.140625 1.390625 1.25 2.296875q1.125 0.890625 2.6875 0.890625q1.2500305 0 2.2344055 -0.578125q0.984375 -0.59375 1.546875 -1.625q0.5625 -1.03125 0.5625 -2.328125q0 -1.34375 -0.59375 -2.390625q-0.578125 -1.046875 -1.59375 -1.65625q-1.015625 -0.609375 -2.3125305 -0.609375q-0.9375 -0.015625 -1.921875 0.28125q-0.984375 0.296875 -1.625 0.75l-2.296875 -0.28125l1.234375 -10.015625l10.5781555 0l0 2.1875l-8.5156555 0l-0.71875 6.0l0.125 0q0.625 -0.5 1.5625 -0.828125q0.953125 -0.328125 1.96875 -0.328125q1.8750305 0 3.3437805 0.890625q1.46875 0.890625 2.296875 2.4375q0.84375 1.53125 0.84375 3.515625q0 1.953125 -0.875 3.484375q-0.859375 1.515625 -2.390625 2.40625q-1.515625 0.875 -3.4531555 0.875zm21.038483 -4.09375l0 -1.078125q0 -1.109375 0.453125 -2.03125q0.46875 -0.9375 1.359375 -1.5q0.890625 -0.5625 2.171875 -0.5625q1.296875 0 2.171875 0.5625q0.875 0.5625 1.3125 1.5q0.453125 0.921875 0.453125 2.03125l0 1.078125q0 1.109375 -0.453125 2.046875q-0.453125 0.921875 -1.34375 1.484375q-0.875 0.5625 -2.140625 0.5625q-1.296875 0 -2.1875 -0.5625q-0.875 -0.5625 -1.34375 -1.484375q-0.453125 -0.9375 -0.453125 -2.046875zm2.03125 -1.078125l0 1.078125q0 0.921875 0.4375 1.65625q0.4375 0.71875 1.515625 0.71875q1.046875 0 1.46875 -0.71875q0.4375 -0.734375 0.4375 -1.65625l0 -1.078125q0 -0.921875 -0.421875 -1.65625q-0.40625 -0.734375 -1.484375 -0.734375q-1.046875 0 -1.5 0.734375q-0.453125 0.734375 -0.453125 1.65625zm-12.171875 -10.578125l0 -1.078125q0 -1.109375 0.453125 -2.03125q0.46875 -0.9375 1.359375 -1.5q0.890625 -0.5625 2.171875 -0.5625q1.28125 0 2.15625 0.5625q0.875 0.5625 1.328125 1.5q0.453125 0.921875 0.453125 2.03125l0 1.078125q0 1.109375 -0.453125 2.046875q-0.453125 0.921875 -1.34375 1.484375q-0.875 0.5625 -2.140625 0.5625q-1.296875 0 -2.1875 -0.5625q-0.875 -0.5625 -1.34375 -1.484375q-0.453125 -0.9375 -0.453125 -2.046875zm2.03125 -1.078125l0 1.078125q0 0.921875 0.4375 1.65625q0.4375 0.734375 1.515625 0.734375q1.046875 0 1.46875 -0.734375q0.4375 -0.734375 0.4375 -1.65625l0 -1.078125q0 -0.921875 -0.421875 -1.65625q-0.421875 -0.734375 -1.484375 -0.734375q-1.046875 0 -1.5 0.734375q-0.453125 0.734375 -0.453125 1.65625zm-1.265625 16.546875l14.0 -20.359375l2.265625 0l-14.0 20.359375l-2.265625 0z" fill-rule="nonzero"/><path fill="#000000" fill-opacity="0.0" d="m676.42255 735.68506l153.13391 0l0 75.93701l-153.13391 0z" fill-rule="evenodd"/><path fill="#000000" d="m721.5825 789.9538q-3.40625 0 -6.015625 -1.21875q-2.609375 -1.21875 -4.078125 -3.359375q-1.453125 -2.15625 -1.4375 -4.90625q-0.015625 -2.15625 0.84375 -3.984375q0.875 -1.828125 2.375 -3.0625q1.5 -1.234375 3.34375 -1.5625l0 -0.203125q-2.4375 -0.625 -3.875 -2.734375q-1.4375 -2.125 -1.421875 -4.8125q-0.015625 -2.59375 1.3125 -4.625q1.328125 -2.046875 3.65625 -3.21875q2.328125 -1.171875 5.296875 -1.171875q2.953125 0 5.265625 1.171875q2.328125 1.171875 3.65625 3.21875q1.34375 2.03125 1.359375 4.625q-0.015625 2.6875 -1.46875 4.8125q-1.453125 2.109375 -3.828125 2.734375l0 0.203125q1.828125 0.328125 3.296875 1.5625q1.484375 1.234375 2.359375 3.0625q0.875 1.828125 0.890625 3.984375q-0.015625 2.75 -1.484375 4.90625q-1.453125 2.140625 -4.046875 3.359375q-2.59375 1.21875 -6.0 1.21875zm0 -3.65625q2.3125 0 3.984375 -0.734375q1.671875 -0.75 2.578125 -2.109375q0.921875 -1.359375 0.9375 -3.1875q-0.015625 -1.921875 -1.0 -3.390625q-0.984375 -1.46875 -2.671875 -2.3125q-1.671875 -0.84375 -3.828125 -0.84375q-2.171875 0 -3.875 0.84375q-1.6875 0.84375 -2.65625 2.3125q-0.96875 1.46875 -0.953125 3.390625q-0.015625 1.828125 0.890625 3.1875q0.90625 1.359375 2.59375 2.109375q1.6875 0.734375 4.0 0.734375zm0 -16.09375q1.828125 0 3.234375 -0.734375q1.421875 -0.734375 2.234375 -2.03125q0.8125 -1.3125 0.828125 -3.078125q-0.015625 -1.71875 -0.8125 -3.0q-0.796875 -1.28125 -2.203125 -1.984375q-1.40625 -0.703125 -3.28125 -0.703125q-1.90625 0 -3.328125 0.703125q-1.421875 0.703125 -2.203125 1.984375q-0.78125 1.28125 -0.765625 3.0q-0.015625 1.765625 0.78125 3.078125q0.8125 1.296875 2.234375 2.03125q1.4375 0.734375 3.28125 0.734375z" fill-rule="nonzero"/><path fill="#000000" d="m739.8293 789.6413q-0.734375 0 -1.265625 -0.515625q-0.53125 -0.53125 -0.53125 -1.265625q0 -0.734375 0.53125 -1.265625q0.53125 -0.53125 1.265625 -0.53125q0.734375 0 1.25 0.53125q0.53125 0.53125 0.53125 1.265625q0 0.484375 -0.25 0.890625q-0.234375 0.40625 -0.640625 0.65625q-0.390625 0.234375 -0.890625 0.234375zm6.2088623 -0.15625l9.109375 -18.015625l0 -0.15625l-10.5 0l0 -2.1875l13.03125 0l0 2.296875l-9.0625 18.0625l-2.578125 0zm21.429077 0.28125q-1.75 0 -3.15625 -0.6875q-1.390625 -0.703125 -2.234375 -1.921875q-0.84375 -1.21875 -0.9375 -2.765625l2.390625 0q0.140625 1.390625 1.25 2.296875q1.125 0.890625 2.6875 0.890625q1.25 0 2.234375 -0.578125q0.984375 -0.59375 1.546875 -1.625q0.5625 -1.03125 0.5625 -2.328125q0 -1.34375 -0.59375 -2.390625q-0.578125 -1.046875 -1.59375 -1.65625q-1.015625 -0.609375 -2.3125 -0.609375q-0.9375 -0.015625 -1.921875 0.28125q-0.984375 0.296875 -1.625 0.75l-2.296875 -0.28125l1.234375 -10.015625l10.578125 0l0 2.1875l-8.515625 0l-0.71875 6.0l0.125 0q0.625 -0.5 1.5625 -0.828125q0.953125 -0.328125 1.96875 -0.328125q1.875 0 3.34375 0.890625q1.46875 0.890625 2.296875 2.4375q0.84375 1.53125 0.84375 3.515625q0 1.953125 -0.875 3.484375q-0.859375 1.515625 -2.390625 2.40625q-1.515625 0.875 -3.453125 0.875zm21.038452 -4.09375l0 -1.078125q0 -1.109375 0.453125 -2.03125q0.46875 -0.9375 1.359375 -1.5q0.890625 -0.5625 2.171875 -0.5625q1.296875 0 2.171875 0.5625q0.875 0.5625 1.3125 1.5q0.453125 0.921875 0.453125 2.03125l0 1.078125q0 1.109375 -0.453125 2.046875q-0.453125 0.921875 -1.34375 1.484375q-0.875 0.5625 -2.140625 0.5625q-1.296875 0 -2.1875 -0.5625q-0.875 -0.5625 -1.34375 -1.484375q-0.453125 -0.9375 -0.453125 -2.046875zm2.03125 -1.078125l0 1.078125q0 0.921875 0.4375 1.65625q0.4375 0.71875 1.515625 0.71875q1.046875 0 1.46875 -0.71875q0.4375 -0.734375 0.4375 -1.65625l0 -1.078125q0 -0.921875 -0.421875 -1.65625q-0.40625 -0.734375 -1.484375 -0.734375q-1.046875 0 -1.5 0.734375q-0.453125 0.734375 -0.453125 1.65625zm-12.171875 -10.578125l0 -1.078125q0 -1.109375 0.453125 -2.03125q0.46875 -0.9375 1.359375 -1.5q0.890625 -0.5625 2.171875 -0.5625q1.28125 0 2.15625 0.5625q0.875 0.5625 1.328125 1.5q0.453125 0.921875 0.453125 2.03125l0 1.078125q0 1.109375 -0.453125 2.046875q-0.453125 0.921875 -1.34375 1.484375q-0.875 0.5625 -2.140625 0.5625q-1.296875 0 -2.1875 -0.5625q-0.875 -0.5625 -1.34375 -1.484375q-0.453125 -0.9375 -0.453125 -2.046875zm2.03125 -1.078125l0 1.078125q0 0.921875 0.4375 1.65625q0.4375 0.734375 1.515625 0.734375q1.046875 0 1.46875 -0.734375q0.4375 -0.734375 0.4375 -1.65625l0 -1.078125q0 -0.921875 -0.421875 -1.65625q-0.421875 -0.734375 -1.484375 -0.734375q-1.046875 0 -1.5 0.734375q-0.453125 0.734375 -0.453125 1.65625zm-1.265625 16.546875l14.0 -20.359375l2.265625 0l-14.0 20.359375l-2.265625 0z" fill-rule="nonzero"/><path fill="#000000" fill-opacity="0.0" d="m1003.8399 530.6772l153.13385 0l0 75.93701l-153.13385 0z" fill-rule="evenodd"/><path fill="#000000" d="m1039.2268 550.5397l0 33.9375l-4.109375 0l0 -29.625l-0.1875 0l-8.296875 5.5l0 -4.171875l8.484375 -5.640625l4.109375 0zm20.608643 34.40625q-3.40625 0 -6.015625 -1.21875q-2.609375 -1.21875 -4.078125 -3.359375q-1.453125 -2.15625 -1.4375 -4.90625q-0.015625 -2.15625 0.84375 -3.984375q0.875 -1.828125 2.375 -3.0625q1.5 -1.234375 3.34375 -1.5625l0 -0.203125q-2.4375 -0.625 -3.875 -2.734375q-1.4375 -2.125 -1.421875 -4.8125q-0.015625 -2.59375 1.3125 -4.625q1.328125 -2.046875 3.65625 -3.21875q2.328125 -1.171875 5.296875 -1.171875q2.953125 0 5.265625 1.171875q2.328125 1.171875 3.65625 3.21875q1.34375 2.03125 1.359375 4.625q-0.015625 2.6875 -1.46875 4.8125q-1.453125 2.109375 -3.828125 2.734375l0 0.203125q1.828125 0.328125 3.296875 1.5625q1.484375 1.234375 2.359375 3.0625q0.875 1.828125 0.890625 3.984375q-0.015625 2.75 -1.484375 4.90625q-1.453125 2.140625 -4.046875 3.359375q-2.59375 1.21875 -6.0 1.21875zm0 -3.65625q2.3125 0 3.984375 -0.734375q1.671875 -0.75 2.578125 -2.109375q0.921875 -1.359375 0.9375 -3.1875q-0.015625 -1.921875 -1.0 -3.390625q-0.984375 -1.46875 -2.671875 -2.3125q-1.671875 -0.84375 -3.828125 -0.84375q-2.171875 0 -3.875 0.84375q-1.6875 0.84375 -2.65625 2.3125q-0.96875 1.46875 -0.953125 3.390625q-0.015625 1.828125 0.890625 3.1875q0.90625 1.359375 2.59375 2.109375q1.6875 0.734375 4.0 0.734375zm0 -16.09375q1.828125 0 3.234375 -0.734375q1.421875 -0.734375 2.234375 -2.03125q0.8125 -1.3125 0.828125 -3.078125q-0.015625 -1.71875 -0.8125 -3.0q-0.796875 -1.28125 -2.203125 -1.984375q-1.40625 -0.703125 -3.28125 -0.703125q-1.90625 0 -3.328125 0.703125q-1.421875 0.703125 -2.203125 1.984375q-0.78125 1.28125 -0.765625 3.0q-0.015625 1.765625 0.78125 3.078125q0.8125 1.296875 2.234375 2.03125q1.4375 0.734375 3.28125 0.734375z" fill-rule="nonzero"/><path fill="#000000" d="m1078.0822 584.6334q-0.734375 0 -1.265625 -0.515625q-0.53125 -0.53125 -0.53125 -1.265625q0 -0.734375 0.53125 -1.265625q0.53125 -0.53125 1.265625 -0.53125q0.734375 0 1.25 0.53125q0.53125 0.53125 0.53125 1.265625q0 0.484375 -0.25 0.890625q-0.234375 0.40625 -0.640625 0.65625q-0.390625 0.234375 -0.890625 0.234375zm6.2088623 -0.15625l9.109375 -18.015625l0 -0.15625l-10.5 0l0 -2.1875l13.03125 0l0 2.296875l-9.0625 18.0625l-2.578125 0zm21.429077 0.28125q-1.75 0 -3.15625 -0.6875q-1.390625 -0.703125 -2.234375 -1.921875q-0.84375 -1.21875 -0.9375 -2.765625l2.390625 0q0.140625 1.390625 1.25 2.296875q1.125 0.890625 2.6875 0.890625q1.25 0 2.234375 -0.578125q0.984375 -0.59375 1.546875 -1.625q0.5625 -1.03125 0.5625 -2.328125q0 -1.34375 -0.59375 -2.390625q-0.578125 -1.046875 -1.59375 -1.65625q-1.015625 -0.609375 -2.3125 -0.609375q-0.9375 -0.015625 -1.921875 0.28125q-0.984375 0.296875 -1.625 0.75l-2.296875 -0.28125l1.234375 -10.015625l10.578125 0l0 2.1875l-8.515625 0l-0.71875 6.0l0.125 0q0.625 -0.5 1.5625 -0.828125q0.953125 -0.328125 1.96875 -0.328125q1.875 0 3.34375 0.890625q1.46875 0.890625 2.296875 2.4375q0.84375 1.53125 0.84375 3.515625q0 1.953125 -0.875 3.484375q-0.859375 1.515625 -2.390625 2.40625q-1.515625 0.875 -3.453125 0.875zm21.038574 -4.09375l0 -1.078125q0 -1.109375 0.453125 -2.03125q0.46875 -0.9375 1.359375 -1.5q0.890625 -0.5625 2.171875 -0.5625q1.296875 0 2.171875 0.5625q0.875 0.5625 1.3125 1.5q0.453125 0.921875 0.453125 2.03125l0 1.078125q0 1.109375 -0.453125 2.046875q-0.453125 0.921875 -1.34375 1.484375q-0.875 0.5625 -2.140625 0.5625q-1.296875 0 -2.1875 -0.5625q-0.875 -0.5625 -1.34375 -1.484375q-0.453125 -0.9375 -0.453125 -2.046875zm2.03125 -1.078125l0 1.078125q0 0.921875 0.4375 1.65625q0.4375 0.71875 1.515625 0.71875q1.046875 0 1.46875 -0.71875q0.4375 -0.734375 0.4375 -1.65625l0 -1.078125q0 -0.921875 -0.421875 -1.65625q-0.40625 -0.734375 -1.484375 -0.734375q-1.046875 0 -1.5 0.734375q-0.453125 0.734375 -0.453125 1.65625zm-12.171875 -10.578125l0 -1.078125q0 -1.109375 0.453125 -2.03125q0.46875 -0.9375 1.359375 -1.5q0.890625 -0.5625 2.171875 -0.5625q1.28125 0 2.15625 0.5625q0.875 0.5625 1.328125 1.5q0.453125 0.921875 0.453125 2.03125l0 1.078125q0 1.109375 -0.453125 2.046875q-0.453125 0.921875 -1.34375 1.484375q-0.875 0.5625 -2.140625 0.5625q-1.296875 0 -2.1875 -0.5625q-0.875 -0.5625 -1.34375 -1.484375q-0.453125 -0.9375 -0.453125 -2.046875zm2.03125 -1.078125l0 1.078125q0 0.921875 0.4375 1.65625q0.4375 0.734375 1.515625 0.734375q1.046875 0 1.46875 -0.734375q0.4375 -0.734375 0.4375 -1.65625l0 -1.078125q0 -0.921875 -0.421875 -1.65625q-0.421875 -0.734375 -1.484375 -0.734375q-1.046875 0 -1.5 0.734375q-0.453125 0.734375 -0.453125 1.65625zm-1.265625 16.546875l14.0 -20.359375l2.265625 0l-14.0 20.359375l-2.265625 0z" fill-rule="nonzero"/><path fill="#000000" fill-opacity="0.0" d="m1326.6221 188.62466l153.13379 0l0 75.93701l-153.13379 0z" fill-rule="evenodd"/><path fill="#ffffff" d="m1356.1045 242.89342q-3.28125 0 -5.84375 -1.125q-2.5625 -1.140625 -4.0625 -3.140625q-1.5 -2.015625 -1.625 -4.6875l4.171875 0q0.125 1.640625 1.109375 2.828125q1.0 1.1875 2.609375 1.828125q1.609375 0.640625 3.5625 0.640625q2.1875 0 3.875 -0.75q1.703125 -0.765625 2.65625 -2.125q0.96875 -1.359375 0.96875 -3.15625q0 -1.859375 -0.9375 -3.296875q-0.921875 -1.4375 -2.71875 -2.25q-1.78125 -0.8125 -4.375 -0.8125l-2.71875 0l0 -3.640625l2.71875 0q2.03125 0 3.5625 -0.71875q1.53125 -0.734375 2.390625 -2.0625q0.875 -1.328125 0.875 -3.125q0 -1.71875 -0.765625 -2.984375q-0.75 -1.28125 -2.140625 -1.984375q-1.375 -0.71875 -3.25 -0.71875q-1.765625 0 -3.3125 0.640625q-1.546875 0.625 -2.53125 1.828125q-0.96875 1.203125 -1.046875 2.890625l-3.984375 0q0.109375 -2.65625 1.609375 -4.671875q1.515625 -2.015625 3.953125 -3.140625q2.4375 -1.125 5.375 -1.125q3.15625 0 5.40625 1.265625q2.25 1.265625 3.453125 3.34375q1.21875 2.0625 1.21875 4.46875q0 2.859375 -1.5 4.890625q-1.5 2.015625 -4.078125 2.796875l0 0.265625q3.21875 0.53125 5.015625 2.734375q1.8125 2.1875 1.8125 5.40625q0 2.78125 -1.5 4.984375q-1.5 2.1875 -4.078125 3.453125q-2.578125 1.25 -5.875 1.25zm29.08081 0q-3.40625 0 -6.015625 -1.21875q-2.609375 -1.21875 -4.078125 -3.359375q-1.453125 -2.15625 -1.4375 -4.90625q-0.015625 -2.15625 0.84375 -3.984375q0.875 -1.828125 2.375 -3.0625q1.5 -1.234375 3.34375 -1.5625l0 -0.203125q-2.4375 -0.625 -3.875 -2.734375q-1.4375 -2.125 -1.421875 -4.8125q-0.015625 -2.59375 1.3125 -4.625q1.328125 -2.046875 3.65625 -3.21875q2.328125 -1.171875 5.296875 -1.171875q2.953125 0 5.265625 1.171875q2.328125 1.171875 3.65625 3.21875q1.34375 2.03125 1.359375 4.625q-0.015625 2.6875 -1.46875 4.8125q-1.453125 2.109375 -3.828125 2.734375l0 0.203125q1.828125 0.328125 3.296875 1.5625q1.484375 1.234375 2.359375 3.0625q0.875 1.828125 0.890625 3.984375q-0.015625 2.75 -1.484375 4.90625q-1.453125 2.140625 -4.046875 3.359375q-2.59375 1.21875 -6.0 1.21875zm0 -3.65625q2.3125 0 3.984375 -0.734375q1.671875 -0.75 2.578125 -2.109375q0.921875 -1.359375 0.9375 -3.1875q-0.015625 -1.921875 -1.0 -3.390625q-0.984375 -1.46875 -2.671875 -2.3125q-1.671875 -0.84375 -3.828125 -0.84375q-2.171875 0 -3.875 0.84375q-1.6875 0.84375 -2.65625 2.3125q-0.96875 1.46875 -0.953125 3.390625q-0.015625 1.828125 0.890625 3.1875q0.90625 1.359375 2.59375 2.109375q1.6875 0.734375 4.0 0.734375zm0 -16.09375q1.828125 0 3.234375 -0.734375q1.421875 -0.734375 2.234375 -2.03125q0.8125 -1.3125 0.828125 -3.078125q-0.015625 -1.71875 -0.8125 -3.0q-0.796875 -1.28125 -2.203125 -1.984375q-1.40625 -0.703125 -3.28125 -0.703125q-1.90625 0 -3.328125 0.703125q-1.421875 0.703125 -2.203125 1.984375q-0.78125 1.28125 -0.765625 3.0q-0.015625 1.765625 0.78125 3.078125q0.8125 1.296875 2.234375 2.03125q1.4375 0.734375 3.28125 0.734375z" fill-rule="nonzero"/><path fill="#ffffff" d="m1403.7446 242.69029q-0.984375 0 -1.6875 -0.703125q-0.703125 -0.703125 -0.703125 -1.6875q0 -0.984375 0.703125 -1.671875q0.703125 -0.703125 1.6875 -0.703125q0.953125 0 1.65625 0.703125q0.71875 0.6875 0.71875 1.671875q0 0.65625 -0.328125 1.203125q-0.328125 0.53125 -0.875 0.859375q-0.53125 0.328125 -1.171875 0.328125z" fill-rule="nonzero"/><path fill="#ffffff" d="m1410.5458 242.42467l8.890625 -17.578125l0 -0.15625l-10.28125 0l0 -2.625l13.46875 0l0 2.71875l-8.859375 17.640625l-3.21875 0zm21.975952 0.28125q-1.875 0 -3.359375 -0.71875q-1.484375 -0.71875 -2.375 -1.984375q-0.890625 -1.265625 -0.9375 -2.890625l2.96875 0q0.109375 1.3125 1.15625 2.15625q1.0625 0.84375 2.546875 0.84375q1.171875 0 2.078125 -0.53125q0.90625 -0.546875 1.421875 -1.5q0.53125 -0.953125 0.53125 -2.171875q0 -1.25 -0.546875 -2.21875q-0.53125 -0.984375 -1.46875 -1.53125q-0.9375 -0.5625 -2.15625 -0.578125q-0.921875 0 -1.859375 0.328125q-0.9375 0.3125 -1.5 0.828125l-2.828125 -0.421875l1.15625 -10.25l11.1875 0l0 2.625l-8.640625 0l-0.640625 5.703125l0.109375 0q0.609375 -0.578125 1.59375 -0.96875q0.984375 -0.390625 2.125 -0.390625q1.859375 0 3.3125 0.890625q1.453125 0.890625 2.296875 2.421875q0.84375 1.515625 0.828125 3.5q0.015625 1.96875 -0.890625 3.53125q-0.890625 1.546875 -2.484375 2.4375q-1.578125 0.890625 -3.625 0.890625z" fill-rule="nonzero"/><path fill="#ffffff" d="m1453.9921 238.61217l0 -1.078125q0 -1.21875 0.515625 -2.25q0.53125 -1.03125 1.53125 -1.65625q1.0 -0.625 2.4375 -0.625q1.46875 0 2.453125 0.625q1.0 0.609375 1.515625 1.640625q0.515625 1.03125 0.515625 2.265625l0 1.078125q0 1.21875 -0.515625 2.25q-0.515625 1.03125 -1.53125 1.640625q-1.0 0.625 -2.4375 0.625q-1.46875 0 -2.46875 -0.625q-0.984375 -0.609375 -1.5 -1.640625q-0.515625 -1.03125 -0.515625 -2.25zm2.890625 -1.078125l0 1.078125q0 0.703125 0.34375 1.328125q0.34375 0.625 1.25 0.625q0.90625 0 1.234375 -0.609375q0.34375 -0.625 0.34375 -1.34375l0 -1.078125q0 -0.734375 -0.328125 -1.359375q-0.3125 -0.625 -1.25 -0.625q-0.890625 0 -1.25 0.625q-0.34375 0.625 -0.34375 1.359375zm-13.34375 -10.578125l0 -1.078125q0 -1.234375 0.53125 -2.265625q0.53125 -1.03125 1.53125 -1.640625q1.0 -0.609375 2.421875 -0.609375q1.46875 0 2.453125 0.609375q1.0 0.609375 1.515625 1.640625q0.515625 1.03125 0.515625 2.265625l0 1.078125q0 1.234375 -0.53125 2.265625q-0.515625 1.015625 -1.515625 1.625q-1.0 0.609375 -2.4375 0.609375q-1.453125 0 -2.453125 -0.609375q-1.0 -0.625 -1.515625 -1.640625q-0.515625 -1.03125 -0.515625 -2.25zm2.921875 -1.078125l0 1.078125q0 0.71875 0.34375 1.34375q0.34375 0.609375 1.21875 0.609375q0.90625 0 1.234375 -0.609375q0.34375 -0.625 0.34375 -1.34375l0 -1.078125q0 -0.71875 -0.328125 -1.34375q-0.3125 -0.640625 -1.25 -0.640625q-0.890625 0 -1.234375 0.640625q-0.328125 0.640625 -0.328125 1.34375zm-1.609375 16.546875l14.0 -20.359375l2.609375 0l-14.0 20.359375l-2.609375 0z" fill-rule="nonzero"/></g></svg>